<?xml version="1.0" standalone="no"?>
<!DOCTYPE svg PUBLIC "-//W3C//DTD SVG 20010904//EN"
 "http://www.w3.org/TR/2001/REC-SVG-20010904/DTD/svg10.dtd">
<svg version="1.0" xmlns="http://www.w3.org/2000/svg"
 width="1372.000000pt" height="2062.000000pt" viewBox="0 0 1372.000000 2062.000000"
 preserveAspectRatio="xMidYMid meet">

<g transform="translate(0.000000,2062.000000) scale(0.100000,-0.100000)"
fill="#000000" stroke="none">
<path d="M0 10310 l0 -10310 6860 0 6860 0 -2 3527 -3 3527 -35 3 c-19 2 -89
10 -155 18 -66 8 -183 22 -260 30 -156 16 -1063 121 -1655 190 -415 49 -680
84 -691 91 -4 2 -10 66 -14 141 -3 76 -8 150 -11 164 -5 25 -3 26 53 33 443
57 589 77 617 86 16 6 62 10 103 10 45 0 85 6 102 14 15 8 54 16 87 17 82 3
201 24 187 32 -25 16 -420 54 -793 77 -80 5 -208 14 -285 20 -77 6 -157 11
-177 12 l-37 1 -3 286 c-8 679 -8 1305 1 1291 7 -10 11 0 14 35 3 44 4 42 6
-20 3 -79 6 -77 16 9 5 41 10 55 16 45 7 -11 9 -10 10 6 0 11 3 14 6 8 7 -19
53 -16 53 2 0 12 13 15 59 15 49 0 65 4 85 24 15 13 26 27 26 32 0 5 26 8 57
7 32 -2 53 0 46 3 -8 4 -7 11 5 25 12 14 29 19 64 19 28 0 52 6 62 15 9 9 33
15 61 15 44 0 46 1 29 18 -17 16 -15 17 33 20 47 3 50 4 45 27 -4 25 -3 25 62
25 58 0 69 3 88 25 20 23 29 25 99 25 43 0 79 4 81 10 2 5 39 12 83 16 112 8
125 11 125 34 0 17 7 20 49 20 27 0 62 7 77 15 17 9 56 15 92 15 46 0 62 3 62
14 0 12 67 14 424 14 325 0 426 -3 430 -13 2 -7 40 -14 102 -19 55 -4 103 -11
108 -16 6 -6 23 -10 38 -10 21 0 28 -5 28 -20 0 -27 36 -27 43 0 8 30 34 24
46 -11 6 -18 16 -29 25 -27 8 2 15 -1 15 -6 0 -16 74 -37 83 -24 3 7 4 16 2
20 -3 4 2 8 10 8 9 0 16 -5 16 -10 0 -7 13 -8 36 -4 26 5 39 3 45 -7 5 -8 9
2271 9 5329 l0 5342 -6860 0 -6860 0 0 -10310z m8591 6560 c20 -11 25 -35 10
-44 -12 -8 -63 12 -73 27 -16 26 25 37 63 17z m-364 -196 c-3 -3 -12 -4 -19
-1 -8 3 -5 6 6 6 11 1 17 -2 13 -5z m180 -10 c-3 -3 -12 -4 -19 -1 -8 3 -5 6
6 6 11 1 17 -2 13 -5z m-336 -16 c-1 -5 -1 -18 -1 -31 0 -14 -6 -24 -15 -24
-10 0 -15 11 -15 34 0 26 4 34 16 31 8 -2 15 -6 15 -10z m524 -18 c3 -5 2 -10
-4 -10 -5 0 -13 5 -16 10 -3 6 -2 10 4 10 5 0 13 -4 16 -10z m-635 -19 c0 -6
-4 -13 -10 -16 -5 -3 -10 1 -10 9 0 9 5 16 10 16 6 0 10 -4 10 -9z m777 -47
c3 -8 1 -20 -6 -27 -6 -6 -11 -27 -12 -46 0 -29 -2 -32 -9 -16 -10 24 -13 89
-3 98 11 12 23 8 30 -9z m74 -115 l-10 -54 4 55 c4 66 4 65 10 58 3 -3 1 -29
-4 -59z m-874 29 c-3 -8 -6 -5 -6 6 -1 11 2 17 5 13 3 -3 4 -12 1 -19z m98
-69 c11 -17 -1 -21 -15 -4 -8 9 -8 15 -2 15 6 0 14 -5 17 -11z m660 -197 c-4
-27 -11 -42 -18 -39 -20 6 -20 35 0 95 18 56 18 56 21 22 2 -19 1 -54 -3 -78z
m89 -41 c-3 -34 -11 -61 -16 -61 -5 0 -7 8 -4 18 3 9 8 39 12 65 9 69 17 51 8
-22z m-699 -1426 c346 -40 693 -118 870 -195 22 -10 61 -27 87 -38 69 -30 184
-99 225 -135 20 -18 45 -51 55 -74 16 -37 17 -48 7 -84 -31 -103 -209 -183
-459 -208 -112 -11 -571 -17 -587 -8 -4 2 -53 8 -108 11 -384 26 -888 155
-1126 288 -131 74 -212 174 -195 242 15 61 93 120 206 155 63 19 208 47 280
54 57 5 690 -2 745 -8z m2485 -3837 c0 -29 7 -591 15 -1248 8 -657 17 -1611
20 -2120 3 -509 7 -990 9 -1070 3 -101 1 -124 -4 -75 -4 39 -10 410 -14 825
-4 415 -11 759 -14 765 -4 5 -11 512 -15 1125 -4 613 -8 1127 -9 1143 -1 24
-5 27 -34 27 -50 0 -76 29 -63 72 5 18 9 34 9 35 0 2 -49 3 -110 3 -105 0
-110 1 -110 21 0 16 -4 19 -20 14 -13 -4 -31 1 -49 14 -25 18 -46 21 -163 23
l-133 2 130 6 130 6 -130 2 -131 2 4 35 4 35 86 0 86 0 -44 45 -44 45 37 0
c42 0 44 5 18 39 -15 20 -24 23 -55 18 -28 -4 -36 -2 -36 9 0 20 -24 44 -44
44 -11 0 -16 9 -16 30 l0 30 -60 0 -60 0 0 -55 0 -55 -80 0 -80 0 0 55 c0 42
-3 55 -15 55 -8 0 -15 7 -15 15 0 11 -11 15 -40 15 -39 0 -47 -3 -97 -28 -13
-7 -29 -12 -37 -12 -8 0 -23 -11 -33 -24 -10 -13 -29 -26 -41 -30 -13 -4 -22
-15 -22 -27 0 -11 -4 -17 -10 -14 -5 3 -10 2 -10 -4 0 -5 5 -11 11 -13 5 -2 7
-11 4 -20 -4 -9 -12 -15 -19 -12 -15 6 -41 -22 -41 -45 0 -8 -12 -22 -27 -29
-16 -7 -28 -19 -28 -27 0 -7 -13 -16 -30 -20 -16 -4 -30 -12 -30 -18 0 -6 -8
-3 -17 7 -13 13 -15 20 -5 23 6 3 12 13 12 23 0 10 9 22 21 25 11 4 25 20 31
36 6 18 17 29 29 29 10 0 19 7 19 15 0 8 4 15 9 15 5 0 11 10 13 23 2 14 11
23 25 25 23 3 32 24 25 55 -7 28 -60 23 -74 -8 -16 -35 -58 -35 -58 0 0 31
-14 37 -60 26 l-35 -8 28 -13 c15 -7 27 -19 27 -27 0 -17 -8 -17 -26 2 -9 8
-28 15 -44 15 -21 0 -28 4 -24 14 4 9 -4 16 -24 21 -23 5 -29 10 -25 26 3 10
0 19 -6 19 -6 0 -11 -4 -11 -10 0 -6 -42 -10 -105 -10 -63 0 -105 4 -105 10 0
6 -20 10 -44 10 -25 0 -48 -4 -51 -10 -8 -13 -132 -13 -140 -1 -3 6 14 12 37
14 24 2 -13 5 -82 7 -173 4 -137 7 455 30 759 29 1039 40 1235 49 96 4 230 9
298 10 l122 1 0 -52z m-2405 -38 c3 -5 0 -10 -9 -10 -8 0 -17 -6 -20 -12 -5
-10 -7 -10 -12 0 -10 20 -43 14 -60 -13 -17 -26 -44 -34 -44 -12 0 8 -4 7 -10
-3 -5 -8 -10 -11 -10 -6 0 6 -12 -2 -27 -16 -16 -14 -38 -29 -50 -32 -12 -4
-26 -20 -31 -35 -6 -16 -21 -38 -33 -50 -21 -20 -25 -20 -35 -6 -10 14 -13 14
-21 2 -4 -8 -18 -19 -30 -26 -13 -6 -23 -17 -23 -23 0 -7 4 -7 14 1 25 21 29
-7 6 -44 -24 -39 -40 -45 -40 -16 0 11 -4 22 -9 25 -10 7 -26 -32 -37 -89 -8
-45 -7 -39 -17 -120 -9 -74 -28 -177 -35 -189 -3 -5 -6 -32 -8 -60 -5 -68 -9
-76 -39 -76 -23 0 -25 3 -19 23 6 20 5 20 -14 -4 -12 -14 -26 -45 -31 -68 -5
-23 -16 -50 -25 -60 -9 -10 -16 -23 -16 -29 0 -7 -5 -12 -11 -12 -11 0 -6 71
6 91 4 5 -1 9 -10 9 -22 0 -44 -58 -47 -120 -1 -29 -6 -54 -10 -56 -5 -3 -6
-10 -3 -15 4 -5 -1 -48 -10 -95 -9 -48 -19 -116 -22 -153 -3 -36 -9 -71 -14
-77 -5 -7 -11 -31 -13 -55 -2 -24 -7 -52 -11 -61 -4 -10 -4 -18 0 -18 11 0
123 85 194 148 100 89 135 103 144 56 3 -19 -2 -32 -22 -49 -79 -70 -97 -85
-103 -85 -4 0 -13 -6 -20 -13 -7 -8 -54 -48 -103 -89 -50 -41 -109 -93 -132
-115 -43 -40 -43 -40 -42 -109 1 -82 13 -165 22 -144 3 8 11 33 18 55 8 23 14
33 17 23 1 -9 -13 -69 -33 -135 -20 -65 -43 -143 -51 -173 -8 -30 -24 -84 -34
-120 -11 -36 -58 -201 -104 -367 -47 -165 -88 -309 -91 -320 -11 -36 15 11
149 262 225 426 238 449 258 483 39 65 29 22 -15 -65 -25 -48 -60 -119 -78
-158 -18 -38 -47 -92 -65 -120 -17 -27 -108 -196 -201 -375 -94 -179 -176
-335 -184 -348 -12 -19 -11 -24 3 -38 19 -19 0 -38 167 165 155 191 294 352
298 347 9 -9 -27 -88 -59 -127 -19 -24 -105 -132 -191 -240 -86 -108 -157
-201 -157 -206 0 -5 33 -40 73 -77 l72 -67 52 58 c29 32 53 54 53 50 0 -18
-33 -122 -40 -127 -17 -11 39 -58 95 -80 33 -13 67 -29 76 -37 22 -18 27 -17
64 15 18 15 58 47 89 72 73 57 106 112 106 172 0 49 20 69 46 47 34 -28 46
-147 19 -198 -7 -14 -16 -48 -20 -74 -8 -50 5 -82 48 -119 32 -28 112 -21 245
23 39 13 77 6 86 -16 9 -25 -4 -42 -34 -43 -15 0 -48 -11 -72 -23 -23 -12 -67
-30 -97 -39 -30 -8 -56 -21 -59 -28 -2 -7 17 -21 44 -34 42 -18 60 -20 145
-14 79 5 99 3 109 -9 23 -28 4 -41 -86 -54 -49 -7 -104 -13 -122 -13 -60 -2
-18 -17 73 -27 91 -11 120 -25 109 -54 -5 -14 -20 -15 -107 -11 -56 3 -114 10
-129 14 -41 13 -34 5 27 -35 43 -27 55 -40 55 -60 0 -14 -3 -25 -7 -25 -3 0
-65 38 -137 84 -72 46 -160 96 -196 111 -36 15 -98 43 -138 61 -40 19 -80 34
-87 34 -8 0 -35 16 -61 35 -25 19 -50 35 -55 35 -5 0 -8 14 -7 31 2 21 -3 34
-15 41 -15 8 -17 19 -12 66 l5 57 -90 64 c-94 68 -148 116 -102 92 21 -11 23
-11 20 6 -2 10 -20 27 -40 38 -26 14 -46 36 -66 75 -29 57 -92 130 -111 130
-6 0 -11 7 -11 16 0 10 -6 14 -15 10 -10 -4 -15 1 -15 14 0 11 -7 20 -15 20
-8 0 -15 3 -15 8 0 4 -3 18 -6 32 -5 19 12 6 68 -52 41 -43 81 -78 90 -78 21
0 85 121 125 240 18 52 33 96 33 97 0 2 -7 3 -15 3 -26 0 -18 45 10 58 24 11
25 15 23 93 -2 63 0 83 11 87 9 3 11 0 6 -7 -4 -7 -4 -29 0 -49 l8 -37 9 33
c5 17 56 193 114 389 73 250 103 365 98 383 -3 14 -9 74 -13 134 l-6 109 -62
-53 c-58 -49 -61 -53 -51 -81 5 -16 8 -34 5 -41 -2 -7 -7 2 -11 20 -8 34 -13
37 -34 23 -9 -6 -14 -45 -16 -142 -2 -143 -19 -355 -37 -481 -8 -58 -14 -75
-25 -71 -8 3 -17 -2 -20 -11 -3 -9 -12 -16 -19 -16 -23 0 -95 -37 -110 -56
-11 -15 -15 -16 -15 -4 0 12 -4 10 -15 -4 -19 -26 -19 -26 11 101 15 59 34
151 43 203 l17 95 37 9 37 10 0 65 c0 58 -11 129 -25 169 -3 9 -20 0 -54 -28
-48 -41 -49 -42 -39 -78 6 -20 8 -69 6 -109 -4 -57 -2 -70 9 -66 8 3 13 -2 13
-15 0 -11 -8 -22 -18 -24 -13 -4 -22 -23 -31 -64 -12 -54 -82 -260 -127 -377
l-19 -48 30 -25 30 -25 -37 5 c-30 4 -39 0 -52 -17 -15 -21 -15 -21 -15 16 -1
33 -4 37 -26 37 -14 0 -25 4 -25 9 0 5 11 16 25 25 14 9 25 23 25 31 0 11 -7
14 -25 9 -31 -8 -34 15 -6 40 12 11 16 25 13 41 -3 21 0 25 18 25 18 0 21 4
16 23 -3 12 -2 47 2 77 l7 55 5 -50 5 -50 20 75 c11 41 20 105 20 142 0 57 -3
70 -24 92 -14 14 -33 26 -43 26 -20 0 -22 9 -9 42 6 13 13 49 16 81 6 54 8 58
36 64 16 3 38 18 49 33 24 34 26 54 4 46 -9 -3 -20 -6 -25 -6 -5 0 -9 -7 -9
-15 0 -9 -9 -15 -22 -15 -22 0 -23 4 -23 75 0 42 5 79 10 83 6 4 11 12 12 17
28 178 54 368 50 378 -8 24 -37 -82 -52 -193 -24 -174 -25 -180 -35 -180 -5 0
-14 16 -20 36 -11 33 -9 81 7 154 5 23 3 23 -18 -7 -27 -37 -34 -40 -43 -16
-5 11 6 30 32 57 38 39 69 86 57 86 -3 0 -32 -13 -65 -30 -64 -32 -70 -34 -70
-22 0 4 35 25 79 46 l79 39 33 76 c23 52 33 87 31 112 -8 86 130 283 520 741
59 70 108 135 108 144 0 16 -392 -449 -560 -664 -52 -67 -126 -173 -163 -235
-38 -61 -76 -120 -84 -129 -20 -22 -52 -23 -60 -2 -7 18 56 146 75 152 7 2 0
-18 -17 -44 -16 -27 -33 -62 -37 -77 -6 -25 -4 -28 12 -25 10 2 46 51 88 121
88 146 205 298 520 677 178 214 246 302 246 320 l-1 25 -22 -30 c-42 -56 -191
-241 -377 -465 -255 -308 -260 -315 -260 -333 0 -29 -18 -27 -72 8 -33 21 -64
52 -77 75 -20 35 -24 38 -42 27 -29 -18 -50 1 -66 63 -20 80 -22 85 -34 73
-10 -10 -71 -3 -109 11 -11 5 -15 -3 -17 -31 -1 -20 -4 -47 -7 -58 -4 -15 4
-32 27 -56 30 -32 32 -39 31 -104 0 -38 -5 -119 -11 -180 -12 -117 -7 -145 27
-145 16 0 20 -7 20 -34 0 -19 -3 -41 -6 -50 -10 -26 -24 -18 -24 14 0 29 -1
29 -18 12 -10 -10 -21 -26 -25 -35 -10 -26 -25 -20 -43 16 -9 17 -49 74 -88
125 -39 52 -80 107 -90 124 -11 17 -31 42 -44 57 l-26 26 24 -40 c13 -22 60
-86 104 -142 45 -56 104 -142 131 -192 28 -50 56 -99 63 -109 10 -15 11 -14 3
8 -11 34 -3 57 13 34 11 -15 15 -13 34 20 12 21 22 47 22 58 0 27 42 158 50
158 3 0 3 -30 -1 -67 -8 -77 -1 -175 14 -184 15 -11 71 -377 68 -444 -1 -11
-3 -42 -6 -70 -2 -27 -4 -60 -4 -72 -1 -13 -5 -23 -11 -23 -16 0 -23 48 -11
82 10 28 9 35 -5 45 -13 9 -15 20 -9 50 5 21 7 45 6 53 -2 8 -13 94 -25 190
-19 147 -23 169 -30 135 -10 -51 -44 -131 -62 -146 -28 -23 -26 20 4 73 34 60
62 147 62 192 0 31 0 31 -19 -10 -10 -23 -22 -64 -26 -93 -4 -30 -12 -51 -19
-51 -7 0 -12 -8 -12 -17 2 -30 -18 -29 -37 2 -10 17 -46 80 -79 140 -49 91
-135 210 -195 273 -7 8 -27 33 -44 58 -34 50 -42 49 -94 -6 -16 -18 -55 -49
-85 -70 -30 -21 -68 -55 -85 -76 -16 -21 -44 -54 -60 -73 -33 -39 -131 -238
-122 -247 3 -3 12 7 21 23 8 16 31 40 50 54 20 13 45 42 56 64 32 63 85 130
106 133 10 2 26 13 35 24 11 15 22 18 37 13 33 -10 26 -39 -17 -78 -50 -45
-78 -96 -60 -107 6 -5 27 -7 44 -6 24 2 32 -1 31 -13 0 -9 5 -15 12 -13 44 8
-27 -119 -96 -172 -22 -17 -74 -57 -115 -88 -72 -55 -99 -84 -126 -136 -12
-22 -12 -23 10 -11 13 7 39 11 58 11 62 -3 101 -59 101 -146 0 -91 -31 -145
-97 -167 -28 -9 -40 -8 -72 9 l-39 21 -6 -22 c-3 -12 -19 -30 -36 -40 l-31
-19 92 -46 c102 -50 169 -107 169 -141 0 -21 -2 -21 -39 11 -52 44 -186 115
-236 124 -56 9 -38 -4 40 -31 94 -33 215 -128 215 -168 0 -15 -12 -8 -54 30
-53 48 -180 123 -209 123 -16 0 -27 -20 -27 -51 0 -11 -7 -19 -17 -20 -16 -1
-16 -2 -2 -6 15 -4 15 -7 3 -32 -16 -32 -64 -79 -64 -63 0 7 4 20 9 30 9 17
20 55 42 147 6 28 20 75 29 105 103 313 110 338 102 359 -7 21 -11 19 -72 -36
-36 -32 -91 -80 -123 -106 -31 -27 -59 -58 -61 -70 -15 -75 -37 -239 -33 -243
3 -3 23 4 46 15 22 12 43 21 46 21 14 0 -10 -69 -57 -166 -37 -76 -53 -124
-64 -190 -19 -118 -18 -164 1 -164 26 0 16 -30 -15 -48 -25 -14 -30 -23 -30
-54 0 -40 8 -46 28 -26 10 10 15 10 21 -1 11 -17 37 -8 80 27 20 17 32 35 30
46 -3 15 -11 12 -54 -20 -27 -21 -41 -28 -31 -16 10 12 23 45 27 74 6 36 15
58 31 69 12 10 26 15 30 13 4 -3 12 15 19 38 16 62 37 98 53 92 10 -4 11 -16
5 -52 -11 -58 1 -164 19 -170 7 -2 33 16 57 40 47 47 90 72 106 62 6 -3 4 -15
-5 -29 -11 -17 -13 -31 -7 -47 8 -22 11 -19 80 46 39 38 74 66 78 63 8 -9 -53
-123 -65 -120 -13 3 -74 -75 -69 -90 2 -6 16 7 32 31 15 23 30 42 32 42 3 0
-2 -11 -11 -25 -9 -14 -22 -35 -30 -47 -15 -25 -23 -93 -13 -118 19 -45 47
-149 47 -172 0 -16 5 -28 10 -28 20 0 75 32 107 62 38 37 66 32 61 -9 -2 -20
-8 -27 -20 -25 -9 1 -25 -12 -38 -33 -20 -33 -21 -42 -13 -118 l8 -82 45 -22
c78 -38 74 -45 95 158 8 79 21 180 29 224 9 44 15 92 16 108 0 43 52 187 67
187 19 0 16 -24 -13 -104 -23 -65 -34 -132 -51 -326 -3 -36 -10 -71 -15 -77
-6 -7 -8 -23 -4 -36 3 -13 0 -58 -8 -100 -11 -65 -11 -79 0 -88 16 -13 19 -59
4 -59 -6 0 -24 7 -41 15 -16 9 -51 16 -77 17 -30 0 -56 7 -71 19 -13 11 -32
19 -42 19 -35 0 -19 -30 26 -51 25 -12 45 -27 45 -34 0 -13 67 -75 81 -75 3 0
9 18 12 41 6 46 11 54 26 44 6 -3 11 -30 11 -59 0 -35 5 -58 15 -66 16 -13 21
-70 7 -70 -5 0 -29 13 -53 30 -24 16 -51 30 -60 30 -9 0 -22 7 -29 15 -7 8
-18 15 -25 15 -8 0 -29 19 -49 43 -20 23 -36 36 -36 29 0 -17 89 -112 105
-112 10 0 35 -48 35 -67 0 -2 -17 -3 -37 -1 -33 3 -40 8 -57 43 -11 22 -25 44
-33 48 -7 4 -13 14 -13 21 0 24 -51 130 -86 178 -40 54 -60 115 -69 216 -6 58
-4 77 9 96 20 31 49 40 78 25 20 -10 21 -10 12 2 -6 8 -17 31 -24 52 -10 32
-14 36 -27 25 -22 -18 -63 -115 -71 -170 l-7 -47 -25 20 c-14 12 -19 18 -12
14 7 -4 12 0 12 10 0 9 -4 14 -8 11 -5 -3 -9 8 -9 24 0 17 -3 33 -7 37 -11 11
-23 -14 -51 -103 -14 -45 -32 -87 -40 -94 -9 -7 -30 -37 -48 -67 -30 -50 -47
-66 -47 -43 0 5 21 56 46 112 92 206 117 278 96 278 -8 0 -15 -15 -68 -160
-20 -52 -53 -135 -74 -185 -21 -49 -48 -121 -61 -160 -34 -107 -32 -102 -36
-79 -4 20 112 362 141 416 8 15 11 30 6 33 -5 3 -19 -13 -30 -36 -12 -22 -24
-39 -26 -36 -8 8 22 102 31 99 11 -5 25 19 25 43 0 17 -2 17 -10 5 -5 -8 -10
-10 -10 -4 0 7 9 22 20 35 18 23 19 23 20 4 1 -16 4 -14 15 10 23 49 19 58
-15 40 -47 -24 -84 -72 -87 -111 -3 -45 -61 -265 -91 -343 -4 -10 -1 -12 8 -6
18 11 8 -38 -21 -105 -15 -35 -27 -50 -40 -50 -11 0 -19 6 -19 13 0 11 46 135
76 205 8 18 14 41 14 52 0 18 -17 36 -26 28 -2 -3 -20 -63 -40 -134 -33 -119
-47 -154 -58 -143 -2 2 14 58 36 124 22 67 42 149 45 187 6 64 5 68 -18 77
-13 5 -17 10 -10 10 22 1 70 51 64 67 -3 9 0 12 9 9 17 -7 43 20 33 35 -3 5
-13 10 -21 10 -8 0 -14 5 -14 12 0 7 -27 -14 -60 -47 -33 -33 -60 -55 -60 -49
0 6 12 21 26 35 45 42 50 66 5 26 -23 -21 -46 -35 -51 -32 -22 13 -10 74 20
108 16 19 27 37 24 40 -3 3 4 3 16 0 15 -4 30 3 51 23 35 33 37 46 7 42 -19
-3 -23 3 -31 42 -5 25 -6 149 -3 275 4 200 8 244 31 337 31 134 32 148 4 141
-11 -3 -25 -16 -29 -29 -14 -35 -40 -263 -42 -357 -1 -45 -5 -91 -10 -102 -11
-27 0 169 18 315 7 63 14 118 14 122 0 4 -15 4 -33 1 -47 -7 -59 11 -55 92 3
67 3 68 37 79 50 16 52 36 4 37 l-38 1 50 16 50 17 3 52 c2 30 -3 66 -12 87
-13 30 -21 37 -55 42 -52 8 -53 28 -6 74 19 18 32 36 30 39 -3 2 -19 -8 -35
-24 -20 -19 -30 -24 -30 -14 0 18 119 143 139 146 7 1 19 10 26 20 7 10 47 36
89 58 48 25 78 47 81 60 3 11 11 47 19 80 12 52 14 55 15 25 l2 -35 13 25 c7
14 19 52 26 85 37 174 79 325 90 325 4 0 -8 -53 -25 -117 -18 -65 -36 -134
-39 -153 l-7 -35 21 24 c11 13 20 31 20 40 0 53 118 379 146 402 22 18 18 -4
-11 -62 -29 -57 -62 -146 -99 -270 -30 -101 -30 -99 -12 -99 9 0 29 46 56 127
77 231 166 380 285 475 32 26 63 48 67 48 19 0 6 -27 -20 -42 -37 -22 -128
-113 -163 -165 -73 -106 -204 -432 -182 -454 16 -16 30 7 63 96 41 113 111
250 165 324 43 58 143 151 164 151 23 0 10 -26 -25 -49 -102 -70 -218 -249
-285 -438 l-18 -53 28 21 c16 11 39 42 51 67 60 122 158 253 240 322 l50 42
11 -25 c10 -23 8 -29 -22 -57 l-34 -32 36 21 c20 12 44 18 53 15 10 -4 30 4
51 20 37 29 42 27 24 -7 -21 -40 -58 -77 -64 -67 -4 7 -37 -16 -78 -53 -40
-34 -105 -90 -144 -122 -40 -32 -73 -62 -73 -65 0 -7 69 -30 90 -30 7 0 36 17
64 38 28 20 70 50 94 65 44 28 77 83 67 110 -3 7 8 28 25 45 16 18 30 38 30
46 0 8 14 20 30 28 17 7 30 17 30 22 0 4 6 6 14 3 19 -7 108 20 118 36 11 17
10 65 -2 72 -5 3 -10 2 -10 -3 0 -9 -70 -42 -89 -42 -5 0 -30 16 -55 35 -32
25 -46 30 -46 20 0 -9 -12 -20 -26 -25 -21 -8 -25 -15 -22 -35 7 -32 -16 -53
-37 -35 -21 17 -19 37 5 45 11 4 18 11 14 16 -3 5 10 24 29 42 19 18 40 49 46
70 7 20 16 37 20 37 4 0 7 9 7 20 0 22 -16 26 -34 8 -16 -16 -33 33 -26 72 5
21 3 30 -6 30 -9 0 -7 7 5 20 12 13 14 20 5 20 -10 0 -10 3 0 15 6 8 9 18 6
24 -3 5 1 12 10 15 11 4 14 13 10 31 -5 20 -3 23 10 18 13 -5 15 -2 9 15 -3
12 -2 22 3 22 5 0 12 19 16 41 5 30 17 51 44 75 20 18 41 34 46 34 5 0 17 6
25 14 9 7 37 21 63 31 38 14 51 15 62 5 9 -6 20 -9 26 -5 6 4 9 1 8 -5 -2 -6
18 -30 44 -52 34 -29 52 -38 67 -33 38 12 156 105 243 192 48 48 91 84 95 79
12 -12 -190 -201 -267 -248 -72 -44 -87 -61 -47 -50 20 5 21 4 8 -12 -13 -16
-12 -16 15 -4 16 7 46 23 68 36 26 16 46 22 63 17 17 -4 32 0 44 11 25 23 24
37 -2 24 -19 -11 -20 -10 -9 9 12 24 -1 28 -20 7 -17 -21 -104 -76 -120 -76
-7 0 23 27 67 60 44 32 116 98 161 145 73 77 102 99 102 77 0 -4 -3 -12 -7
-18 -5 -5 0 -1 9 9 12 13 36 19 90 22 115 7 208 8 214 2 3 -3 -16 -22 -43 -42
-78 -59 -143 -125 -143 -144 0 -31 12 -31 50 -1 60 47 59 35 0 -26 l-55 -55
41 16 c23 9 59 15 80 13 36 -3 39 -6 42 -35 6 -62 -102 -224 -342 -513 -110
-131 -136 -170 -136 -197 0 -14 125 133 348 408 201 250 330 449 320 496 -3
15 -13 18 -61 17 -39 -1 -57 2 -54 10 4 13 69 20 104 12 48 -13 25 -105 -58
-228 -62 -92 -201 -273 -329 -428 -61 -74 -145 -176 -186 -227 -42 -51 -74
-98 -72 -104 2 -7 52 46 110 117 58 71 174 212 257 314 247 300 321 399 321
427 0 18 14 39 42 67 24 22 55 59 70 83 30 47 44 55 35 22 l-6 -21 23 21 c23
22 56 28 56 11 0 -7 8 -7 22 1 13 7 110 14 257 19 130 4 239 7 243 8 4 1 10
-2 13 -8z m155 -5 c0 -8 5 -15 10 -15 6 0 10 -5 10 -10 0 -6 -8 -5 -20 2 -21
13 -27 38 -10 38 6 0 10 -7 10 -15z m77 -11 c-3 -3 -12 -4 -19 -1 -8 3 -5 6 6
6 11 1 17 -2 13 -5z m-147 -30 c0 -8 -6 -14 -14 -14 -8 0 -14 8 -13 19 1 21
27 17 27 -5z m-1491 -36 c-22 -20 -35 -25 -38 -17 -5 16 47 61 61 53 6 -4 -3
-19 -23 -36z m-899 -6 c0 -10 -95 -77 -125 -89 -12 -4 -53 -30 -93 -58 -40
-27 -81 -54 -90 -60 -27 -16 -152 -101 -227 -154 -119 -85 -263 -181 -269
-181 -21 0 11 32 137 137 78 65 160 132 182 148 22 16 54 44 71 62 18 18 35
33 39 33 15 0 125 123 125 140 0 15 9 20 43 23 85 7 207 7 207 -1z m733 -11
c-22 -22 -63 -45 -63 -34 0 11 53 52 68 53 9 0 7 -6 -5 -19z m1635 -6 c-6 -14
-17 -25 -25 -25 -17 0 -16 10 4 32 23 26 35 22 21 -7z m102 16 c0 -12 -20 -25
-27 -18 -7 7 6 27 18 27 5 0 9 -4 9 -9z m-276 -22 c-16 -17 -16 -22 -4 -30 13
-8 12 -12 -4 -24 -26 -20 -36 -19 -36 3 0 32 24 72 44 72 19 0 19 0 0 -21z
m-74 -7 c0 -5 -13 -21 -30 -37 -35 -33 -42 -14 -8 22 22 23 38 30 38 15z m170
-10 c0 -14 -46 -53 -53 -45 -4 3 3 17 15 30 22 23 38 30 38 15z m969 -24 c1 6
5 12 10 12 12 0 22 -54 10 -58 -5 -2 -7 -8 -3 -13 3 -5 -2 -9 -10 -9 -9 0 -16
9 -16 20 0 14 -7 20 -21 20 -19 0 -19 1 -5 16 9 8 16 21 17 27 0 7 4 3 9 -8 5
-11 9 -14 9 -7z m-709 -3 c0 -11 -33 -55 -40 -55 -18 0 -15 36 5 47 22 13 35
16 35 8z m-274 -36 c10 -16 -18 -40 -35 -29 -12 7 -12 11 -2 24 16 19 27 20
37 5z m-1611 -29 c-10 -11 -25 -20 -34 -20 -11 1 -7 8 14 25 34 28 47 25 20
-5z m1435 7 c0 -17 -44 -59 -53 -51 -8 8 31 64 44 64 5 0 9 -6 9 -13z m240 -7
c-6 -11 -15 -20 -20 -20 -16 0 -11 18 8 29 24 14 24 14 12 -9z m-1595 0 c-11
-17 -95 -72 -106 -68 -6 2 14 20 43 41 52 36 75 46 63 27z m1265 -18 c0 -14
-39 -56 -46 -49 -7 7 25 57 37 57 5 0 9 -4 9 -8z m154 -33 c-24 -27 -30 -15
-9 18 12 17 20 23 23 15 2 -7 -4 -22 -14 -33z m86 32 c0 -12 -20 -25 -27 -18
-7 7 6 27 18 27 5 0 9 -4 9 -9z m-160 -36 c0 -20 -28 -31 -43 -16 -8 8 -7 11
6 11 9 0 17 5 17 10 0 6 5 10 10 10 6 0 10 -7 10 -15z m170 -8 c0 -16 -6 -23
-20 -24 -24 -2 -25 5 -3 29 21 23 23 23 23 -5z m-85 -20 c-3 -7 -7 -27 -9 -45
-3 -32 -30 -72 -48 -72 -6 0 -6 14 -2 33 4 17 7 39 7 47 0 19 37 61 48 54 4
-2 6 -10 4 -17z m-180 -7 c9 -15 -6 -60 -21 -60 -8 0 -14 -5 -14 -11 0 -5 5
-7 10 -4 6 3 10 -1 10 -9 0 -18 -2 -19 -24 -10 -20 8 -20 22 -1 68 15 36 28
45 40 26z m1575 -43 c0 -50 -2 -53 -36 -72 l-37 -20 6 -68 c5 -53 3 -73 -8
-83 -8 -9 -11 -22 -7 -32 6 -15 7 -15 10 3 10 52 74 74 80 28 3 -17 -5 -25
-32 -37 -20 -8 -36 -21 -36 -28 0 -11 2 -11 9 0 5 9 17 11 34 6 25 -6 27 -10
27 -56 0 -56 -16 -57 -26 -2 -5 25 -10 32 -17 25 -8 -8 -8 -14 1 -23 7 -7 12
-18 12 -24 0 -7 5 -25 12 -41 13 -32 12 -31 29 -126 14 -84 5 -251 -16 -302
-4 -11 -19 -49 -33 -85 -13 -36 -31 -72 -38 -81 -8 -8 -14 -20 -14 -26 0 -12
-96 -107 -133 -131 -15 -10 -25 -21 -21 -24 3 -3 0 -9 -7 -14 -8 -5 -10 -3 -4
6 6 10 4 11 -11 5 -101 -42 -171 -52 -250 -34 -32 7 -65 13 -72 12 -7 0 -11 2
-8 5 8 7 -50 32 -75 32 -10 0 -21 4 -24 10 -3 6 1 7 10 4 8 -3 -16 25 -53 62
-114 116 -170 253 -179 440 -4 84 -1 130 11 186 21 93 82 222 131 277 22 24
34 45 29 52 -4 7 -3 9 4 6 13 -9 114 57 104 68 -4 5 -2 5 4 2 7 -4 31 0 54 8
68 24 193 19 265 -10 37 -15 52 -18 40 -9 -19 16 -19 16 5 9 14 -4 30 -12 35
-18 7 -7 6 -8 -2 -3 -7 4 -13 3 -13 -2 0 -11 28 -26 50 -26 8 -1 15 -6 15 -11
0 -6 19 -33 43 -60 34 -39 42 -45 37 -25 -4 14 -13 31 -19 39 -9 12 -8 13 4 6
13 -8 13 -6 1 8 -7 9 -17 14 -22 11 -5 -3 -9 1 -9 10 0 8 -6 17 -12 20 -7 3
-3 3 10 0 20 -5 22 -2 22 30 0 25 -4 36 -15 36 -28 0 -15 29 18 38 17 5 50 26
71 46 22 20 41 36 43 36 2 0 3 -24 3 -53z m-1330 24 c0 -5 -7 -14 -15 -21 -16
-14 -18 -10 -9 14 6 17 24 22 24 7z m917 3 c-3 -3 -12 -4 -19 -1 -8 3 -5 6 6
6 11 1 17 -2 13 -5z m-1247 -26 c0 -14 -40 -58 -52 -58 -15 0 -8 23 14 47 24
25 38 29 38 11z m170 -15 c0 -4 -10 -17 -22 -30 -18 -20 -19 -23 -5 -23 19 0
23 -25 7 -35 -6 -4 -7 -11 -4 -17 8 -13 -16 -58 -32 -58 -13 0 -17 56 -5 75 3
6 6 20 7 33 1 31 54 85 54 55z m260 -12 c0 -12 -42 -42 -49 -36 -5 6 29 45 41
45 4 0 8 -4 8 -9z m-100 -31 c0 -11 -4 -20 -10 -20 -5 0 -10 9 -10 20 0 11 5
20 10 20 6 0 10 -9 10 -20z m-340 -12 c0 -13 -7 -32 -15 -42 -10 -13 -11 -22
-5 -26 7 -4 3 -17 -10 -33 -12 -15 -17 -27 -11 -27 13 0 15 -46 3 -54 -5 -3
-8 -22 -6 -43 1 -23 -5 -51 -17 -70 -15 -27 -16 -33 -4 -33 8 0 15 -3 15 -8 0
-16 -32 -52 -46 -52 -14 0 -19 21 -7 33 3 4 8 24 10 45 2 20 6 44 9 52 4 8 7
35 9 60 1 25 4 45 5 45 1 0 4 25 6 55 3 36 12 62 24 75 11 12 20 27 20 33 0 7
5 12 10 12 6 0 10 -10 10 -22z m46 -15 c-10 -10 -19 5 -10 18 6 11 8 11 12 0
2 -7 1 -15 -2 -18z m214 14 c0 -8 -9 -22 -20 -32 -24 -21 -26 -37 -5 -29 8 4
15 1 15 -5 0 -14 -23 -14 -37 0 -8 8 -6 20 9 45 21 35 38 44 38 21z m-180 -12
c0 -8 -4 -15 -10 -15 -5 0 -10 7 -10 15 0 8 5 15 10 15 6 0 10 -7 10 -15z
m413 -17 c-10 -11 -19 -15 -21 -8 -5 15 18 41 30 34 5 -3 1 -15 -9 -26z m-439
-14 c12 -5 14 -16 10 -52 -10 -89 -15 -113 -24 -107 -5 3 -13 -3 -19 -12 -8
-14 -11 -15 -12 -3 -2 25 3 64 9 75 8 12 8 18 10 68 2 40 2 40 26 31z m-1744
-24 c0 -5 -5 -10 -11 -10 -5 0 -7 5 -4 10 3 6 8 10 11 10 2 0 4 -4 4 -10z
m2080 -6 c0 -8 -5 -12 -10 -9 -6 4 -8 11 -5 16 9 14 15 11 15 -7z m-240 -52
c0 -8 -37 -42 -45 -42 -7 0 -6 36 2 43 9 10 43 9 43 -1z m55 -12 c3 -5 1 -10
-4 -10 -6 0 -11 5 -11 10 0 6 2 10 4 10 3 0 8 -4 11 -10z m105 -20 c0 -5 -4
-10 -10 -10 -5 0 -10 5 -10 10 0 6 5 10 10 10 6 0 10 -4 10 -10z m-170 -50 c0
-15 -33 -50 -47 -50 -19 0 -16 9 10 36 23 25 37 30 37 14z m-90 -23 c0 -8 -11
-24 -25 -37 -22 -21 -25 -22 -25 -5 0 19 27 55 42 55 4 0 8 -6 8 -13z m230
-17 c0 -5 -4 -10 -10 -10 -5 0 -10 5 -10 10 0 6 5 10 10 10 6 0 10 -4 10 -10z
m11 -23 c-10 -9 -11 -8 -5 6 3 10 9 15 12 12 3 -3 0 -11 -7 -18z m79 14 c0
-12 -20 -25 -27 -18 -7 7 6 27 18 27 5 0 9 -4 9 -9z m-155 -10 c6 -11 -33 -36
-42 -27 -7 7 16 36 28 36 4 0 10 -4 14 -9z m-97 -23 c-2 -6 -10 -14 -16 -16
-7 -2 -10 2 -6 12 7 18 28 22 22 4z m153 -11 c-13 -13 -26 -3 -16 12 3 6 11 8
17 5 6 -4 6 -10 -1 -17z m109 6 c-1 -16 -29 -45 -40 -41 -6 2 -4 12 7 25 18
23 33 30 33 16z m-2355 -32 c-3 -6 -16 -16 -28 -22 -21 -11 -21 -10 2 15 23
25 40 29 26 7z m2015 11 c0 -13 -49 -56 -56 -49 -10 10 24 57 41 57 8 0 15 -4
15 -8z m244 -35 c-3 -8 -12 -18 -20 -21 -20 -8 -18 21 3 33 21 12 25 9 17 -12z
m76 -22 c0 -8 -4 -15 -10 -15 -5 0 -10 7 -10 15 0 8 5 15 10 15 6 0 10 -7 10
-15z m-250 -12 c0 -18 -28 -53 -42 -53 -13 0 -9 19 10 45 20 29 32 32 32 8z
m-176 -46 c-7 -25 -33 -57 -46 -57 -4 0 -8 9 -8 20 0 11 5 20 10 20 6 0 15 12
20 26 12 30 34 22 24 -9z m-2009 -7 c-3 -5 -11 -10 -16 -10 -6 0 -7 5 -4 10 3
6 11 10 16 10 6 0 7 -4 4 -10z m1915 -9 c0 -11 -7 -26 -15 -35 -12 -12 -13
-19 -4 -34 9 -15 8 -24 -6 -45 -9 -15 -21 -27 -26 -27 -12 0 -11 27 1 35 6 4
8 21 4 41 -5 28 -2 40 17 60 27 29 29 29 29 5z m172 3 c-5 -9 -7 -25 -5 -35 5
-18 -33 -47 -45 -33 -4 4 -1 9 7 12 11 4 11 6 0 13 -11 6 -8 13 11 33 26 29
46 35 32 10z m88 -14 c0 -5 -4 -10 -10 -10 -5 0 -10 5 -10 10 0 6 5 10 10 10
6 0 10 -4 10 -10z m60 -10 c0 -5 -5 -10 -11 -10 -5 0 -7 5 -4 10 3 6 8 10 11
10 2 0 4 -4 4 -10z m-95 -9 c3 -5 1 -12 -5 -16 -5 -3 -10 1 -10 9 0 18 6 21
15 7z m-145 -59 c0 -5 -3 -12 -7 -16 -4 -4 -8 -16 -8 -28 0 -11 -9 -26 -20
-34 -18 -12 -20 -11 -20 14 1 35 22 72 40 72 8 0 15 -4 15 -8z m80 -16 c0 -15
-11 -33 -27 -45 -34 -28 -41 -20 -14 17 12 17 21 35 21 41 0 6 5 11 10 11 6 0
10 -11 10 -24z m-263 -16 c-6 -16 -15 -30 -20 -30 -5 0 -4 -7 3 -14 18 -23 8
-61 -17 -64 -21 -3 -22 -1 -16 50 6 53 25 88 49 88 10 0 10 -7 1 -30z m343 10
c0 -5 -4 -10 -10 -10 -5 0 -10 5 -10 10 0 6 5 10 10 10 6 0 10 -4 10 -10z
m-2346 -25 c-4 -8 -8 -15 -10 -15 -2 0 -4 7 -4 15 0 8 4 15 10 15 5 0 7 -7 4
-15z m20 -69 c-3 -14 -10 -26 -15 -26 -11 0 -11 3 1 36 13 33 23 26 14 -10z
m2041 10 c16 -16 10 -52 -14 -80 -15 -18 -15 -19 2 -13 24 9 22 -14 -3 -41
-34 -36 -50 -29 -28 11 6 12 11 36 9 53 -1 18 3 35 9 39 6 4 8 15 5 26 -7 22
1 25 20 5z m100 -13 c-7 -29 -32 -63 -47 -63 -12 0 2 50 21 71 24 26 34 23 26
-8z m145 7 c0 -5 -4 -10 -10 -10 -5 0 -10 5 -10 10 0 6 5 10 10 10 6 0 10 -4
10 -10z m-90 -40 c0 -5 -4 -10 -10 -10 -5 0 -10 5 -10 10 0 6 5 10 10 10 6 0
10 -4 10 -10z m-2263 -22 c-3 -8 -6 -5 -6 6 -1 11 2 17 5 13 3 -3 4 -12 1 -19z
m2022 6 c6 4 11 3 11 -3 0 -5 -5 -13 -10 -16 -7 -5 -8 -11 -1 -19 6 -7 6 -18
1 -25 -4 -8 -6 -20 -3 -27 2 -6 0 -15 -6 -18 -6 -4 -8 -13 -4 -22 5 -14 -22
-54 -37 -54 -7 0 -6 56 0 70 1 3 2 12 1 22 -1 9 2 19 8 22 5 3 7 15 4 25 -3
10 0 22 6 25 5 4 8 14 5 24 -5 13 -4 14 4 3 5 -7 15 -10 21 -7z m351 6 c0 -5
-4 -10 -10 -10 -5 0 -10 5 -10 10 0 6 5 10 10 10 6 0 10 -4 10 -10z m-2484
-27 c-10 -10 -19 5 -10 18 6 11 8 11 12 0 2 -7 1 -15 -2 -18z m71 -25 c-3 -8
-6 -5 -6 6 -1 11 2 17 5 13 3 -3 4 -12 1 -19z m4993 -3 c0 -14 -4 -25 -10 -25
-5 0 -10 11 -10 25 0 14 5 25 10 25 6 0 10 -11 10 -25z m-4981 -64 c-7 -28
-15 -49 -17 -46 -2 2 1 27 8 55 7 28 14 49 17 46 3 -3 -1 -28 -8 -55z m2204
33 c-29 -29 -41 -26 -21 5 7 12 21 21 30 21 14 0 12 -5 -9 -26z m-973 9 c-1
-11 -50 -70 -50 -60 0 14 34 67 42 67 4 0 8 -3 8 -7z m-1355 -146 c-15 -50
-32 -96 -38 -102 -7 -7 -8 -4 -3 9 4 11 16 62 27 115 23 105 32 128 37 93 2
-12 -9 -64 -23 -115z m5263 36 c-1 -47 -3 -61 -5 -35 -2 23 -8 42 -14 42 -5 0
-9 11 -9 25 0 14 5 25 11 25 5 0 7 5 4 10 -3 6 -1 10 4 10 7 0 10 -29 9 -77z
m-5374 42 c-4 -8 -8 -15 -10 -15 -2 0 -4 7 -4 15 0 8 4 15 10 15 5 0 7 -7 4
-15z m2342 -31 c-9 -9 -20 -14 -23 -10 -4 3 2 13 13 20 25 18 31 12 10 -10z
m2634 10 c0 -8 -5 -12 -10 -9 -6 4 -8 11 -5 16 9 14 15 11 15 -7z m-4771 -86
c-6 -34 -15 -67 -19 -71 -4 -5 -1 26 8 68 8 41 17 74 19 71 2 -2 -1 -33 -8
-68z m-168 19 c-10 -9 -11 -8 -5 6 3 10 9 15 12 12 3 -3 0 -11 -7 -18z m-52
-39 c-35 -69 -129 -188 -129 -164 0 3 24 37 53 75 28 38 60 83 69 100 26 47
32 37 7 -11z m11 -58 c-17 -34 -33 -60 -36 -57 -3 2 10 32 28 65 43 78 49 72
8 -8z m2245 51 c-3 -6 -14 -11 -23 -11 -15 1 -15 2 2 15 21 16 32 13 21 -4z
m-2325 -20 c-6 -12 -15 -21 -21 -21 -10 0 -5 13 14 38 15 19 20 7 7 -17z
m5263 -22 c12 -8 5 -45 -8 -41 -19 6 -38 49 -31 68 7 18 8 18 18 -1 6 -11 15
-23 21 -26z m-5169 -51 c-32 -64 -96 -147 -158 -208 -58 -56 -61 -47 -3 11 63
64 125 146 153 201 13 26 27 48 29 48 3 0 -7 -24 -21 -52z m5096 30 c0 -16 -3
-19 -11 -11 -6 6 -8 16 -5 22 11 17 16 13 16 -11z m132 -37 c-9 -24 -22 12
-15 40 l7 24 6 -25 c4 -14 4 -31 2 -39z m90 0 l-6 -26 -7 25 c-4 14 -7 34 -8
44 -1 19 0 19 12 2 8 -10 11 -30 9 -45z m-61 32 c0 -15 2 -15 9 2 8 18 9 17 9
-7 1 -20 -3 -26 -13 -22 -16 6 -29 44 -15 44 5 0 9 -8 10 -17z m109 2 c0 -8
-4 -15 -10 -15 -5 0 -10 7 -10 15 0 8 5 15 10 15 6 0 10 -7 10 -15z m-1880 1
c0 -3 -4 -8 -10 -11 -5 -3 -10 -1 -10 4 0 6 5 11 10 11 6 0 10 -2 10 -4z m640
-21 c0 -8 -6 -15 -14 -15 -8 0 -16 -6 -19 -12 -2 -7 -8 -9 -13 -5 -5 5 2 17
16 27 30 24 30 24 30 5z m907 -11 c-3 -3 -12 -4 -19 -1 -8 3 -5 6 6 6 11 1 17
-2 13 -5z m-841 -20 c-3 -9 -6 -18 -6 -20 0 -2 -4 -4 -9 -4 -5 0 -7 9 -4 20 3
11 10 20 15 20 6 0 7 -7 4 -16z m712 -1 c-15 -2 -42 -2 -60 0 -18 2 -6 4 27 4
33 0 48 -2 33 -4z m167 -3 c3 -5 1 -10 -4 -10 -6 0 -11 5 -11 10 0 6 2 10 4
10 3 0 8 -4 11 -10z m-4016 -59 c15 -57 31 -245 31 -364 0 -110 0 -110 20 -92
33 30 34 9 1 -27 -25 -27 -31 -41 -31 -78 0 -63 -29 -215 -45 -237 -9 -12 -17
-15 -24 -8 -7 7 -4 40 9 105 27 132 27 146 -7 145 -23 0 -29 5 -31 27 -2 15 1
35 7 45 9 16 10 16 11 -5 0 -18 5 -23 22 -20 22 3 23 5 21 149 -2 81 -7 186
-13 235 -5 49 -10 111 -10 138 0 42 2 47 15 36 8 -7 19 -29 24 -49z m3991 50
c0 -11 -170 -25 -215 -18 -19 2 -7 5 30 7 33 1 74 6 90 10 43 11 95 12 95 1z
m70 -10 c0 -25 -17 -30 -65 -21 l-40 8 40 2 c22 1 43 2 48 1 4 0 7 6 7 14 0 8
2 15 5 15 3 0 5 -9 5 -19z m193 -20 c-5 -23 -23 -44 -30 -37 -9 9 11 63 23 63
10 0 12 -8 7 -26z m-5411 -18 c-27 -37 -92 -99 -92 -88 0 9 100 115 108 115 2
0 -6 -12 -16 -27z m4238 7 c0 -5 -4 -10 -10 -10 -5 0 -10 5 -10 10 0 6 5 10
10 10 6 0 10 -4 10 -10z m1123 -10 c-3 -12 -8 -19 -11 -16 -5 6 5 36 12 36 2
0 2 -9 -1 -20z m-5302 -44 c-17 -25 -37 -48 -44 -53 -6 -4 -4 4 6 17 9 14 27
39 40 57 12 17 23 30 25 28 2 -2 -10 -24 -27 -49z m5249 37 c0 -5 -5 -15 -10
-23 -8 -12 -10 -11 -10 8 0 12 5 22 10 22 6 0 10 -3 10 -7z m-384 -10 c-7 -7
-87 -5 -95 3 -2 2 20 4 49 4 29 0 50 -3 46 -7z m234 -4 c11 -7 6 -8 -19 -4
-23 5 -31 4 -27 -4 5 -7 -2 -11 -18 -11 -25 0 -33 10 -19 23 10 11 66 8 83 -4z
m75 -20 c-4 -5 -1 -9 4 -9 6 0 11 -9 11 -20 0 -17 7 -20 40 -20 22 0 40 -5 40
-11 0 -5 -5 -7 -11 -3 -7 4 -10 1 -7 -6 8 -24 28 -23 29 2 0 15 3 18 6 8 4 -8
12 -21 20 -28 7 -7 13 -19 13 -25 0 -7 -4 -6 -10 3 -7 11 -10 7 -11 -20 l-2
-35 -4 33 c-4 26 -9 32 -29 32 -17 0 -24 5 -24 20 0 16 -7 20 -34 20 -27 0
-35 4 -35 18 1 9 -3 28 -7 41 -5 17 -4 22 5 17 6 -4 9 -12 6 -17z m235 12 c0
-5 -3 -16 -6 -25 -5 -14 -7 -14 -22 0 -13 13 -13 17 -1 25 18 11 29 11 29 0z
m-143 -43 c-3 -8 -6 -5 -6 6 -1 11 2 17 5 13 3 -3 4 -12 1 -19z m-2264 6 c36
-6 37 -8 36 -48 -1 -22 -4 -54 -8 -70 l-6 -30 -101 3 -102 3 -4 -41 -4 -41 61
-1 c33 -1 69 -2 80 -3 22 -1 22 -8 10 -99 -8 -57 -26 -68 -108 -65 l-52 1 60
7 60 7 -66 1 -67 2 -6 -67 c-14 -149 -10 -141 -72 -145 -63 -3 -84 5 -84 33 0
11 -4 18 -9 14 -5 -3 -4 7 3 22 7 16 26 132 40 258 15 127 30 238 32 248 5 15
20 17 137 17 73 0 149 -3 170 -6z m2335 -8 c3 -3 -9 -6 -26 -6 -18 0 -32 4
-32 9 0 9 48 6 58 -3z m-2134 -51 c-1 -27 -15 -157 -33 -287 -17 -130 -31
-242 -31 -247 0 -7 -28 -11 -70 -11 -43 0 -70 4 -70 11 0 5 -6 7 -12 3 -9 -6
-9 -3 1 9 8 10 12 31 9 52 -2 19 0 35 5 35 6 0 7 19 3 46 -3 25 -2 43 3 40 4
-3 13 38 19 92 27 232 34 288 38 300 3 9 23 12 71 10 l68 -3 -1 -50z m235 45
c69 0 131 -4 137 -8 6 -4 14 -34 18 -67 4 -41 3 -55 -4 -45 -8 12 -10 10 -10
-10 l0 -25 -109 3 -109 3 -5 -38 c-2 -21 -1 -42 4 -47 4 -5 49 -7 101 -4 51 2
85 2 76 0 -13 -2 -18 -14 -19 -40 0 -20 -3 -55 -7 -76 l-7 -40 -60 2 c-33 2
-72 5 -86 8 -25 5 -25 5 -37 -97 -7 -55 -9 -105 -6 -110 3 -5 -28 -9 -70 -9
-41 0 -77 4 -80 8 -3 5 4 80 14 168 11 87 27 217 35 289 9 74 21 133 28 137 7
5 25 6 41 3 16 -3 85 -5 155 -5z m171 0 c0 -5 -2 -10 -4 -10 -3 0 -8 5 -11 10
-3 6 -1 10 4 10 6 0 11 -4 11 -10z m1500 0 c-20 -13 -33 -13 -25 0 3 6 14 10
23 10 15 0 15 -2 2 -10z m50 -9 c0 -17 -12 -41 -21 -41 -5 0 -9 11 -9 25 0 16
6 25 15 25 8 0 15 -4 15 -9z m204 -23 c-3 -5 -9 -6 -14 -3 -4 3 -8 -1 -7 -8 2
-59 -4 -86 -18 -81 -17 7 -21 34 -5 34 6 0 10 18 10 41 0 24 4 38 10 34 6 -3
10 0 10 7 0 10 3 9 9 -2 6 -8 7 -18 5 -22z m46 2 c0 -20 -5 -30 -15 -30 -10 0
-15 10 -15 30 0 20 5 30 15 30 10 0 15 -10 15 -30z m-1561 14 c17 -4 28 -10
25 -15 -3 -5 -10 -7 -15 -4 -11 8 -11 4 2 -75 13 -76 12 -74 29 -212 7 -59 16
-106 19 -104 3 2 7 -12 7 -32 1 -21 4 -75 7 -122 5 -80 4 -86 -14 -87 -10 -1
-19 3 -19 8 0 6 5 7 10 4 6 -3 10 -2 10 3 0 11 -118 25 -133 15 -6 -4 -7 -1
-3 6 5 7 5 32 2 56 -5 31 -12 44 -24 45 -9 0 -40 3 -69 6 -45 5 -53 3 -63 -15
-6 -12 -8 -21 -5 -21 4 0 -4 -14 -16 -31 -21 -31 -23 -31 -88 -25 -36 3 -67 6
-67 6 -1 0 11 32 27 71 16 39 26 76 22 82 -3 6 -1 7 5 3 8 -4 12 0 12 11 0 11
4 23 9 29 12 12 34 82 38 117 6 63 7 67 17 57 10 -10 66 104 69 141 1 10 4 19
8 19 4 0 11 10 15 23 3 12 11 28 16 35 11 13 112 17 167 6z m470 -20 c14 -7
29 -10 35 -7 6 3 8 3 4 -1 -3 -4 5 -24 18 -43 19 -28 24 -49 24 -97 0 -79 -30
-143 -104 -223 -31 -33 -56 -65 -56 -69 1 -5 9 1 19 13 16 19 20 20 25 7 3 -8
2 -13 -3 -10 -5 3 -14 -1 -21 -9 -6 -7 -18 -11 -27 -8 -11 4 -14 2 -11 -8 3
-10 23 -14 67 -16 58 -1 91 -14 91 -35 0 -5 -4 -6 -10 -3 -6 4 -10 -6 -10 -23
0 -16 -3 -44 -6 -62 l-7 -32 -175 8 c-113 4 -173 3 -169 -3 3 -5 0 -10 -8 -10
-8 0 -11 5 -7 11 12 21 12 50 0 58 -10 6 -10 8 0 8 6 0 12 11 12 24 0 13 7 29
15 36 8 7 15 18 15 24 0 7 14 22 31 35 18 13 28 29 25 37 -3 7 -1 13 4 11 19
-5 160 170 160 199 0 4 -8 17 -17 28 -17 20 -17 20 0 7 19 -15 24 -2 6 16 -12
12 -39 6 -51 -11 -4 -6 -8 -23 -8 -38 0 -22 -5 -28 -23 -28 -13 0 -28 -5 -34
-11 -6 -6 -21 -8 -33 -4 -18 6 -20 9 -9 17 10 6 2 8 -23 3 -33 -5 -38 -3 -38
14 0 11 4 22 9 25 4 3 11 20 15 38 10 52 53 108 99 129 48 22 137 23 176 3z
m-4329 2 c0 -2 -8 -10 -17 -17 -16 -13 -17 -12 -4 4 13 16 21 21 21 13z m4680
-23 c0 -10 -5 -56 -11 -103 -5 -47 -12 -105 -15 -130 -2 -25 -9 -70 -14 -100
-6 -30 -12 -77 -15 -105 -2 -27 -9 -77 -14 -109 -6 -32 -8 -63 -5 -67 8 -14
-120 -10 -140 4 -17 13 -19 68 -2 95 4 7 8 44 9 81 1 38 5 67 8 66 5 -3 29
175 29 213 0 7 -15 12 -40 12 -44 0 -46 4 -32 85 l7 40 75 17 c105 23 160 23
160 1z m37 11 c-3 -3 -12 -4 -19 -1 -8 3 -5 6 6 6 11 1 17 -2 13 -5z m260 0
c-3 -3 -12 -4 -19 -1 -8 3 -5 6 6 6 11 1 17 -2 13 -5z m237 -24 c27 0 40 -22
23 -39 -8 -8 -3 -11 19 -11 21 0 25 -3 15 -9 -22 -14 -50 5 -44 29 3 11 1 20
-3 20 -5 0 -11 -28 -12 -62 -2 -35 -6 -65 -8 -68 -3 -2 -4 23 -3 58 1 34 -1
65 -4 69 -4 3 -7 -127 -7 -290 l0 -297 24 0 c18 0 26 7 29 23 3 14 5 9 6 -14
1 -33 3 -36 25 -32 13 3 27 0 30 -6 5 -7 -5 -11 -28 -11 -28 0 -36 -4 -39 -22
-2 -13 -3 -6 -2 15 3 34 1 37 -23 36 -24 0 -25 -1 -7 -9 18 -7 18 -9 3 -15 -9
-3 -19 -18 -23 -33 -5 -19 -9 -22 -15 -12 -4 7 -6 19 -4 25 5 12 -68 19 -313
30 -47 3 -87 6 -88 7 -2 2 -5 146 -7 321 l-4 318 208 -7 c175 -6 208 -5 208 7
1 10 4 9 11 -3 5 -10 21 -18 33 -18z m-5214 -10 c-6 -11 -13 -20 -16 -20 -2 0
0 9 6 20 6 11 13 20 16 20 2 0 0 -9 -6 -20z m-85 -50 c-32 -33 -60 -58 -62
-56 -5 5 101 113 112 115 5 0 -17 -26 -50 -59z m2272 18 c-3 -8 -6 -5 -6 6 -1
11 2 17 5 13 3 -3 4 -12 1 -19z m2527 -15 c3 -21 7 -78 8 -128 l2 -90 6 110
c6 100 6 93 8 -77 2 -182 1 -188 -18 -188 -13 0 -20 7 -20 19 0 31 -18 34 -23
4 -2 -16 -5 -1 -6 33 0 36 4 65 11 72 9 9 13 54 13 147 0 134 7 169 19 98z
m576 29 c0 -5 -7 -9 -15 -9 -8 0 -15 4 -15 9 0 4 7 8 15 8 8 0 15 -4 15 -8z
m108 -8 c15 -15 14 -16 -6 -10 -19 6 -22 4 -22 -18 0 -16 -6 -26 -15 -26 -8 0
-15 5 -15 10 0 6 4 10 9 10 5 0 12 11 15 25 7 29 12 31 34 9z m22 -50 c0 -14
-4 -23 -10 -19 -5 3 -10 15 -10 26 0 10 5 19 10 19 6 0 10 -12 10 -26z m-2550
1 c-7 -8 -14 -15 -15 -15 -2 0 -5 7 -9 15 -4 10 1 15 16 15 17 0 18 -2 8 -15z
m2460 6 c0 -5 -7 -11 -15 -15 -9 -3 -15 0 -15 9 0 8 7 15 15 15 8 0 15 -4 15
-9z m-2286 -16 c-6 -16 -24 -21 -24 -7 0 11 11 22 21 22 5 0 6 -7 3 -15z m976
4 c-9 -6 -11 -12 -5 -15 13 -5 7 -84 -6 -84 -5 0 -9 9 -9 21 0 28 -23 19 -31
-12 -6 -19 -7 -15 -8 19 -1 23 3 42 8 42 5 0 11 9 14 20 3 13 13 20 29 20 19
0 20 -2 8 -11z m-610 -19 c0 -5 -4 -10 -10 -10 -5 0 -10 5 -10 10 0 6 5 10 10
10 6 0 10 -4 10 -10z m1875 -19 c3 -5 1 -12 -5 -16 -5 -3 -10 1 -10 9 0 18 6
21 15 7z m25 -61 c0 -33 -4 -60 -10 -60 -5 0 -10 7 -10 15 0 8 -4 15 -10 15
-5 0 -10 9 -10 20 0 11 7 20 15 20 9 0 15 9 15 25 0 14 2 25 5 25 3 0 5 -27 5
-60z m-1080 25 c0 -14 -2 -25 -4 -25 -2 0 -6 11 -8 25 -3 14 -1 25 3 25 5 0 9
-11 9 -25z m-1210 -16 c0 -5 -4 -9 -10 -9 -5 0 -10 7 -10 16 0 8 5 12 10 9 6
-3 10 -10 10 -16z m2333 1 c3 -11 1 -20 -4 -20 -5 0 -9 6 -9 14 0 8 -6 17 -12
19 -8 4 -7 6 3 6 9 1 19 -8 22 -19z m67 5 c0 -8 -4 -15 -9 -15 -5 0 -11 7 -15
15 -3 9 0 15 9 15 8 0 15 -7 15 -15z m-3433 -37 c-3 -7 -5 -2 -5 12 0 14 2 19
5 13 2 -7 2 -19 0 -25z m2023 -18 c5 0 10 8 10 18 0 14 2 14 9 3 8 -13 -6 -51
-19 -51 -7 0 -30 51 -29 64 0 6 4 1 9 -11 5 -13 14 -23 20 -23z m170 34 c0
-22 -22 -41 -46 -38 -29 3 -46 14 -22 14 9 0 21 7 28 15 12 14 40 21 40 9z
m246 -33 c-21 -40 -20 -49 7 -53 18 -2 23 -10 25 -41 l3 -37 -65 2 c-36 2 -66
5 -66 8 0 3 13 19 29 36 15 16 38 52 50 79 12 26 24 46 27 42 3 -3 -2 -19 -10
-36z m794 29 c0 -5 -4 -10 -10 -10 -5 0 -10 5 -10 10 0 6 5 10 10 10 6 0 10
-4 10 -10z m-1135 -10 c-3 -5 -10 -10 -16 -10 -5 0 -9 5 -9 10 0 6 7 10 16 10
8 0 12 -4 9 -10z m1325 0 c-10 -6 -11 -10 -2 -10 19 0 14 -20 -5 -21 -17 -1
-17 -2 0 -6 19 -5 22 -18 7 -28 -5 -3 -10 -1 -10 4 0 6 -15 11 -34 11 -21 0
-36 6 -40 15 -3 8 -1 15 4 15 6 0 10 -4 10 -10 0 -5 7 -10 15 -10 9 0 15 9 15
25 0 21 5 25 28 25 21 0 24 -2 12 -10z m-160 -15 c0 -8 -7 -15 -15 -15 -13 0
-14 3 -3 15 16 18 18 18 18 0z m-1144 -41 c10 -2 22 2 26 9 6 9 8 9 8 0 0 -7
-6 -16 -14 -20 -7 -4 -18 -21 -25 -38 -11 -29 -11 -29 -6 -2 7 33 -1 34 -26 5
-15 -19 -18 -20 -19 -6 0 9 7 23 15 32 8 8 12 23 9 33 -5 14 -4 15 4 4 6 -8
19 -16 28 -17z m1142 -2 c-36 -3 -55 -22 -23 -22 9 0 12 -6 9 -15 -9 -22 -34
0 -34 29 0 19 4 21 43 16 l42 -5 -37 -3z m69 -22 c1 -11 -2 -20 -8 -20 -5 0
-9 9 -9 20 0 11 4 20 8 20 4 0 8 -9 9 -20z m70 5 c0 -18 -13 -20 -20 -2 -3 6
-6 3 -6 -8 -1 -17 -3 -17 -11 -5 -15 23 -12 30 13 30 14 0 24 -6 24 -15z
m-1382 -25 c3 -5 1 -10 -4 -10 -6 0 -11 5 -11 10 0 6 2 10 4 10 3 0 8 -4 11
-10z m35 -4 c0 -21 27 -40 33 -24 2 7 4 2 3 -12 -1 -20 -6 -26 -23 -25 -29 0
-38 12 -24 29 8 10 9 16 1 21 -13 8 -13 25 0 25 6 0 10 -6 10 -14z m437 -18
c-3 -7 -5 -2 -5 12 0 14 2 19 5 13 2 -7 2 -19 0 -25z m783 12 c0 -5 -4 -10
-10 -10 -5 0 -10 5 -10 10 0 6 5 10 10 10 6 0 10 -4 10 -10z m30 -10 c0 -5 -2
-10 -4 -10 -3 0 -8 5 -11 10 -3 6 -1 10 4 10 6 0 11 -4 11 -10z m123 1 c12 -2
8 -59 -5 -64 -7 -2 -22 -1 -33 4 -17 6 -17 8 -2 8 9 1 17 6 17 12 0 6 -6 9
-14 6 -13 -5 -26 11 -26 32 0 7 23 7 63 2z m-73 -23 c0 -19 -2 -20 -10 -8 -13
19 -13 30 0 30 6 0 10 -10 10 -22z m-1852 -5 c-15 -2 -42 -2 -60 0 -18 2 -6 4
27 4 33 0 48 -2 33 -4z m1728 -18 c1 -8 -2 -15 -7 -15 -5 0 -9 10 -9 22 0 23
12 17 16 -7z m71 -7 c-3 -8 -6 -5 -6 6 -1 11 2 17 5 13 3 -3 4 -12 1 -19z
m-22 2 c3 -5 1 -10 -4 -10 -6 0 -11 5 -11 10 0 6 2 10 4 10 3 0 8 -4 11 -10z
m-39 -55 c1 -8 -4 -15 -11 -15 -8 0 -11 7 -8 20 6 22 15 19 19 -5z m21 -7 c-3
-7 -5 -2 -5 12 0 14 2 19 5 13 2 -7 2 -19 0 -25z m166 25 c-7 -2 -21 -2 -30 0
-10 3 -4 5 12 5 17 0 24 -2 18 -5z m-97 -40 c-3 -3 -18 -2 -33 3 -26 7 -26 8
-5 11 12 3 22 10 22 16 0 7 5 4 11 -6 6 -10 8 -21 5 -24z m41 5 c-3 -7 -5 -2
-5 12 0 14 2 19 5 13 2 -7 2 -19 0 -25z m61 10 c-7 -19 -38 -22 -38 -4 0 10 9
16 21 16 12 0 19 -5 17 -12z m-163 -36 c2 -7 1 -11 -4 -7 -5 3 -16 -2 -24 -10
-9 -8 -18 -15 -21 -15 -7 0 -8 35 -1 41 9 10 45 4 50 -9z m-1595 4 c0 -3 -4
-8 -10 -11 -5 -3 -10 -1 -10 4 0 6 5 11 10 11 6 0 10 -2 10 -4z m1636 -33
c-11 -11 -17 4 -9 23 7 18 8 18 11 1 2 -10 1 -21 -2 -24z m74 21 c0 -8 -4 -12
-10 -9 -5 3 -10 10 -10 16 0 5 5 9 10 9 6 0 10 -7 10 -16z m45 -19 c0 -32 -3
-35 -27 -35 -20 0 -28 5 -28 18 0 14 2 15 10 2 7 -11 10 -7 10 18 0 24 4 32
18 32 13 0 17 -8 17 -35z m-85 -1 c0 -8 -4 -12 -10 -9 -5 3 -10 10 -10 16 0 5
5 9 10 9 6 0 10 -7 10 -16z m-35 -25 c4 -6 13 -8 21 -5 7 3 16 1 19 -4 4 -6
-8 -10 -25 -10 -17 0 -29 4 -26 9 4 5 0 12 -6 14 -9 4 -10 6 -1 6 6 1 15 -4
18 -10z m-3892 -23 c-4 -6 -8 -26 -10 -44 -5 -48 -36 -133 -48 -132 -5 1 -8 7
-7 14 2 6 10 43 19 81 8 39 18 72 24 73 5 2 7 7 5 11 -3 4 1 8 9 8 8 0 11 -5
8 -11z m897 4 c0 -5 -5 -10 -11 -10 -5 0 -7 5 -4 10 3 6 8 10 11 10 2 0 4 -4
4 -10z m937 4 c-3 -3 -12 -4 -19 -1 -8 3 -5 6 6 6 11 1 17 -2 13 -5z m1996 -1
c-7 -2 -19 -2 -25 0 -7 3 -2 5 12 5 14 0 19 -2 13 -5z m-1936 -9 c-3 -3 -12
-4 -19 -1 -8 3 -5 6 6 6 11 1 17 -2 13 -5z m310 -26 c-3 -7 -5 -2 -5 12 0 14
2 19 5 13 2 -7 2 -19 0 -25z m1783 10 c0 -16 -3 -19 -11 -11 -6 6 -8 16 -5 22
11 17 16 13 16 -11z m17 0 c-3 -8 -6 -5 -6 6 -1 11 2 17 5 13 3 -3 4 -12 1
-19z m-67 -20 c0 -21 -5 -28 -19 -28 -21 0 -33 22 -25 44 3 8 14 14 25 13 14
-1 19 -9 19 -29z m-1262 -5 c-10 -2 -26 -2 -35 0 -10 3 -2 5 17 5 19 0 27 -2
18 -5z m1279 -40 c-3 -10 -5 -4 -5 12 0 17 2 24 5 18 2 -7 2 -21 0 -30z m51
30 c-10 -2 -18 -12 -18 -20 0 -19 -13 -9 -16 12 -2 10 6 15 24 14 17 -1 21 -3
10 -6z m-3479 -135 c-35 -104 -68 -173 -69 -145 0 10 11 39 24 65 13 26 34 81
47 122 12 41 24 69 26 63 3 -7 -10 -54 -28 -105z m2911 92 c0 -5 -13 -10 -30
-10 -16 0 -30 5 -30 10 0 6 14 10 30 10 17 0 30 -4 30 -10z m147 -5 c0 -11 -4
-12 -11 -5 -15 15 -36 12 -30 -5 4 -10 0 -15 -15 -15 -25 0 -28 27 -3 33 37
10 59 7 59 -8z m-3511 -134 c3 -70 2 -90 -6 -73 -5 12 -12 66 -15 120 -4 73
-3 91 5 73 6 -14 13 -68 16 -120z m3861 117 c-3 -8 -6 -5 -6 6 -1 11 2 17 5
13 3 -3 4 -12 1 -19z m-57 -3 c0 -8 -4 -15 -10 -15 -5 0 -7 7 -4 15 4 8 8 15
10 15 2 0 4 -7 4 -15z m32 0 c0 -5 -5 -11 -11 -13 -6 -2 -11 4 -11 13 0 9 5
15 11 13 6 -2 11 -8 11 -13z m-210 -2 c-12 -2 -19 -9 -16 -15 4 -6 1 -9 -6 -6
-27 9 -19 24 12 25 21 0 24 -1 10 -4z m-3946 -105 c-3 -18 -8 -89 -10 -158
l-6 -125 24 60 c14 33 35 103 47 155 12 52 22 96 24 98 8 10 35 -14 35 -32 0
-31 -33 -140 -70 -231 -17 -44 -33 -87 -35 -95 -1 -8 -9 -13 -16 -11 -8 2 -24
3 -37 3 -30 -2 -37 19 -24 70 15 58 5 66 -30 24 -16 -20 -43 -43 -59 -51 -30
-16 -40 -6 -14 15 8 7 15 19 15 28 0 16 67 142 76 142 3 0 3 -19 -1 -41 -6
-33 -4 -40 6 -37 9 3 15 24 17 59 3 49 42 159 57 159 3 0 4 -15 1 -32z m2429
-13 c0 -22 -6 -33 -22 -40 -14 -6 -23 -18 -23 -32 0 -48 -18 -20 -22 32 -4 72
-2 77 36 73 27 -3 31 -7 31 -33z m305 -8 c0 -5 -6 -7 -13 -4 -9 3 -13 -8 -12
-42 0 -25 -4 -47 -10 -48 -9 -3 -16 103 -8 119 5 9 43 -14 43 -25z m-2570 20
c0 -2 -9 -30 -20 -62 -11 -32 -34 -113 -51 -179 -17 -67 -33 -123 -35 -125 -3
-3 -9 0 -16 7 -8 8 -3 38 20 114 17 57 41 136 52 176 14 45 27 72 36 72 8 0
14 -2 14 -3z m2330 -27 c0 -5 -7 -10 -15 -10 -11 0 -15 -11 -15 -36 0 -21 -4
-34 -11 -32 -6 2 -10 7 -10 11 1 4 1 23 1 42 0 31 3 35 25 35 14 0 25 -4 25
-10z m58 -2 c20 -20 14 -48 -10 -49 -17 -1 -19 -2 -5 -6 25 -7 21 -23 -7 -23
-24 0 -36 16 -36 49 0 19 18 41 35 41 6 0 16 -5 23 -12z m110 -1 c14 -11 16
-87 2 -87 -5 0 -10 14 -10 30 0 17 -4 30 -10 30 -5 0 -10 -13 -10 -30 0 -16
-4 -30 -10 -30 -5 0 -10 14 -10 30 0 17 -4 30 -10 30 -5 0 -10 -13 -10 -30 0
-16 -4 -30 -10 -30 -5 0 -10 23 -10 50 l0 51 38 -2 c20 -2 43 -7 50 -12z m232
-14 c0 -14 -19 -38 -25 -32 -8 8 5 39 16 39 5 0 9 -3 9 -7z m-3720 -13 c0 -5
-5 -10 -11 -10 -5 0 -7 5 -4 10 3 6 8 10 11 10 2 0 4 -4 4 -10z m3647 -23 c0
-15 -3 -23 -7 -17 -4 6 -15 8 -26 4 -15 -6 -17 -4 -7 6 6 7 9 18 7 24 -2 6 4
12 14 12 14 0 19 -8 19 -29z m-3725 -70 c-12 -13 -22 -29 -22 -35 0 -7 -11
-33 -25 -59 -13 -27 -29 -68 -34 -93 -10 -43 -10 -43 -5 15 6 64 40 141 76
175 30 27 37 25 10 -3z m3775 17 c-3 -3 -12 -4 -19 -1 -8 3 -5 6 6 6 11 1 17
-2 13 -5z m-2331 -189 c-22 -17 -66 -20 -66 -6 0 5 12 12 28 14 54 8 58 7 38
-8z m-853 -17 c3 -10 7 -10 17 -1 10 9 18 9 34 1 12 -7 36 -11 54 -9 35 3 38
-4 19 -41 -10 -20 -21 -24 -65 -27 -28 -1 -52 2 -52 7 0 4 -13 7 -30 4 -36 -5
-48 17 -32 54 12 25 47 33 55 12z m-85 -27 c-7 -12 -16 -21 -21 -21 -4 0 0 11
9 25 20 30 31 26 12 -4z m926 -2 c19 -18 -1 -17 -39 2 l-40 19 35 -6 c19 -3
39 -10 44 -15z m-683 -23 c-8 -10 -9 -16 -2 -21 6 -3 16 5 23 19 11 26 32 34
43 16 3 -5 13 -6 23 -3 16 7 16 5 -1 -20 -19 -30 -21 -37 -8 -37 5 0 14 14 22
32 7 17 15 26 17 20 2 -6 -2 -20 -8 -31 -7 -14 -7 -21 -1 -21 6 0 13 11 17 25
7 30 22 32 32 5 7 -18 10 -18 34 -6 22 12 29 12 38 1 8 -10 6 -13 -7 -11 -14
1 -18 -6 -16 -26 1 -19 -4 -28 -20 -32 -12 -3 -26 0 -32 7 -9 11 -20 14 -88
20 -25 2 -28 5 -24 30 5 34 -1 35 -13 2 -8 -22 -12 -24 -34 -13 -25 11 -25 12
-9 39 9 16 19 26 21 24 3 -3 -1 -11 -7 -19z m493 -175 c-6 -7 -11 2 -17 34
l-6 30 13 -30 c8 -16 12 -32 10 -34z m-308 23 c-3 -8 -13 -51 -21 -97 -9 -45
-25 -103 -36 -129 -16 -39 -18 -63 -14 -155 3 -59 7 -124 10 -143 3 -19 9 -89
14 -155 5 -66 16 -142 25 -169 18 -55 21 -116 6 -116 -5 0 -13 12 -16 26 l-6
25 -22 -20 c-12 -11 -26 -17 -33 -13 -9 6 -3 14 17 26 34 20 36 36 14 97 -10
28 -17 87 -19 159 -2 63 -8 144 -14 180 -18 107 -14 208 10 270 12 30 30 92
40 138 10 46 21 87 24 93 9 14 27 -1 21 -17z m2128 -130 c9 -8 16 -24 16 -34
0 -19 -25 -50 -40 -50 -16 0 -40 32 -40 54 0 42 36 59 64 30z m-1844 -9 c0 -8
-4 -15 -10 -15 -5 0 -10 7 -10 15 0 8 5 15 10 15 6 0 10 -7 10 -15z m2031 4
c23 1 27 -3 31 -34 6 -48 -6 -66 -40 -59 -15 3 -47 7 -72 9 -25 1 -51 3 -57 4
-16 1 -17 33 -1 49 9 9 9 12 0 12 -7 0 -12 7 -12 16 0 13 10 14 63 8 34 -3 74
-6 88 -5z m125 -27 c4 -13 15 -17 47 -17 23 1 48 4 56 9 8 5 16 4 20 -3 4 -6
34 -13 66 -16 32 -3 62 -8 67 -11 4 -3 8 2 8 11 0 9 6 15 13 12 6 -2 11 -10
10 -16 -2 -6 8 -11 22 -11 27 0 32 -9 13 -28 -9 -9 -9 -12 0 -12 7 0 12 -7 12
-16 0 -13 -7 -15 -42 -9 -24 4 -61 8 -83 8 -33 2 -40 6 -46 27 -7 25 -7 25 -8
2 -1 -23 -3 -23 -78 -18 -43 4 -95 9 -115 12 -37 6 -38 7 -38 50 0 44 0 44 36
44 26 0 37 -5 40 -18z m-2096 -27 c19 -19 38 -35 42 -35 4 0 18 -10 31 -22 79
-75 104 -96 124 -107 13 -6 27 -21 34 -32 9 -18 8 -19 -8 -10 -10 5 -38 28
-62 50 -24 23 -46 41 -48 41 -4 0 -45 36 -105 93 -10 9 -22 17 -28 17 -5 0
-14 9 -20 20 -16 31 2 24 40 -15z m2493 -15 c4 -17 9 -18 37 -10 18 5 38 6 44
2 6 -3 17 -7 24 -8 20 -3 23 -8 25 -40 2 -27 -1 -29 -33 -29 -27 0 -37 6 -47
25 -12 24 -13 25 -13 3 0 -16 -6 -23 -19 -23 -11 0 -22 4 -25 9 -3 5 -16 7
-27 4 -19 -5 -20 -3 -14 18 23 73 38 88 48 49z m177 -16 c0 -8 3 -13 8 -11 4
3 16 1 27 -3 11 -4 32 -4 46 0 23 7 26 5 22 -11 -3 -10 -9 -19 -14 -19 -5 0
-9 -4 -9 -10 0 -5 12 -10 26 -10 16 0 24 -5 22 -12 -5 -14 -46 -20 -63 -10 -5
4 -28 6 -50 7 -34 0 -40 3 -43 24 -5 30 6 71 18 71 6 0 10 -7 10 -16z m-1253
-49 c8 -13 88 -23 118 -15 6 2 22 -2 38 -8 19 -8 27 -19 27 -37 l0 -26 -97 6
c-54 4 -106 11 -115 16 -18 10 -25 59 -11 72 11 12 32 8 40 -8z m261 -27 c7
-7 33 -15 60 -18 43 -5 47 -8 50 -33 l4 -29 -71 6 c-42 3 -71 1 -71 -4 0 -20
-28 -9 -34 13 -11 41 -7 57 14 57 11 0 20 5 20 10 0 14 13 13 28 -2z m245 -49
c6 -9 7 -24 4 -33 -5 -13 -16 -15 -59 -10 -65 7 -68 9 -68 40 0 24 2 25 56 22
39 -2 60 -8 67 -19z m245 -13 c36 -4 58 -3 60 4 5 14 22 12 22 -3 0 -13 4 -14
78 -17 35 -2 43 -6 48 -26 8 -33 -3 -45 -39 -40 -18 3 -83 10 -144 17 l-113
12 0 31 c0 35 23 69 28 43 2 -9 23 -17 60 -21z m-110 9 c6 -3 12 -16 12 -30 0
-23 -4 -25 -42 -25 -70 0 -88 9 -88 40 0 28 0 28 53 24 28 -3 58 -7 65 -9z
m402 -49 l0 -54 -38 1 c-36 1 -38 3 -34 26 5 31 30 61 49 61 7 0 13 5 13 10 0
6 2 10 5 10 3 0 5 -24 5 -54z m-1020 0 c47 -2 92 -6 100 -9 44 -15 93 -18 101
-5 11 17 38 -18 39 -50 0 -22 -3 -23 -47 -17 -27 3 -75 8 -108 11 -33 3 -73 7
-90 9 -16 2 -64 7 -105 10 -96 8 -100 10 -100 39 0 31 12 34 75 24 27 -4 88
-10 135 -12z m1214 -11 c35 -5 51 -3 57 7 7 11 11 11 18 -1 5 -8 14 -10 21 -6
9 5 11 4 6 -3 -5 -8 4 -12 28 -12 22 0 36 5 36 13 1 7 6 5 14 -5 15 -20 136
-36 136 -18 0 5 7 10 15 10 8 0 15 -4 15 -9 0 -5 9 -11 20 -14 13 -3 20 -14
20 -30 0 -34 -4 -36 -90 -42 -63 -5 -72 -4 -67 9 5 12 -1 16 -26 17 -34 0 -56
2 -152 13 -33 4 -78 9 -100 12 -137 14 -135 14 -135 45 l0 28 68 -4 c37 -2 89
-6 116 -10z m-944 -41 c0 -27 -4 -43 -10 -39 -5 3 -10 24 -10 46 0 21 5 39 10
39 6 0 10 -21 10 -46z m62 26 c4 -12 34 -15 63 -5 17 5 20 1 23 -35 l2 -40
-42 1 c-90 2 -115 23 -81 66 20 25 30 28 35 13z m1381 -46 c7 0 18 -2 25 -2 8
-1 12 -12 10 -29 -3 -27 -4 -28 -58 -24 -30 1 -61 8 -67 13 -22 17 -14 46 15
61 23 12 29 12 45 -2 11 -9 24 -16 30 -17z m-1182 11 c95 -8 99 -10 99 -39 0
-34 -8 -37 -81 -25 -35 6 -76 11 -91 11 -24 -1 -28 3 -28 27 0 29 8 43 20 36
4 -2 40 -7 81 -10z m169 -6 c0 -6 9 -8 20 -4 11 3 20 2 20 -4 0 -14 42 -18 63
-6 13 7 20 6 26 -4 5 -8 29 -14 59 -15 50 -1 50 -1 54 -37 3 -32 1 -35 -19
-31 -13 2 -23 7 -23 11 0 3 -39 7 -88 8 -48 1 -98 4 -112 6 -14 3 -33 6 -42 6
-28 1 -25 61 2 61 11 0 20 5 20 10 0 6 5 10 10 10 6 0 10 -5 10 -11z m-700
-45 c0 -12 6 -15 24 -10 13 3 37 1 52 -4 16 -5 49 -11 74 -12 43 -3 45 -5 48
-37 3 -31 2 -33 -25 -27 -15 3 -53 8 -83 11 -149 14 -150 14 -150 46 0 22 5
29 20 29 11 0 20 5 20 10 0 6 5 10 10 10 6 0 10 -7 10 -16z m-3064 -86 c-11
-40 -23 -80 -27 -88 -13 -23 -11 65 2 114 20 73 19 70 31 58 9 -9 7 -29 -6
-84z m4174 83 c0 -4 38 -13 85 -19 94 -12 105 -16 105 -38 0 -8 5 -14 11 -14
6 0 9 -6 6 -12 -2 -7 -10 -12 -16 -10 -7 1 -21 -3 -33 -9 -12 -6 -18 -7 -14
-1 3 6 -11 13 -34 17 -32 5 -40 11 -41 28 -2 22 -2 22 -6 0 -4 -19 -10 -22
-36 -19 -18 3 -64 8 -104 11 -73 8 -89 18 -76 51 4 12 19 15 64 13 32 -1 62 1
66 4 9 10 23 9 23 -2z m-830 -31 c7 -11 61 -15 83 -5 12 5 32 2 54 -9 19 -9
40 -13 46 -9 22 14 47 13 47 -1 0 -18 67 -26 93 -11 12 7 23 6 38 -4 18 -11
23 -11 30 0 12 20 19 7 22 -37 1 -30 -1 -38 -13 -35 -8 2 -22 3 -30 3 -8 0
-46 4 -85 8 -38 5 -99 12 -134 15 -36 3 -68 8 -73 11 -4 3 -8 0 -8 -5 0 -6 -7
-11 -15 -11 -8 0 -15 5 -15 10 0 6 -13 10 -30 10 -20 0 -30 5 -30 15 0 8 -4
15 -10 15 -5 0 -10 -4 -10 -10 0 -5 -7 -10 -15 -10 -16 0 -22 60 -8 74 9 8 55
-2 63 -14z m1297 14 c-3 -3 -12 -4 -19 -1 -8 3 -5 6 6 6 11 1 17 -2 13 -5z
m-177 -15 c3 -4 21 -11 40 -14 41 -7 39 -5 42 -36 3 -23 0 -24 -50 -25 -29 -1
-55 2 -58 7 -2 4 -11 6 -18 3 -7 -3 -21 7 -31 22 -9 14 -13 24 -7 20 5 -3 12
3 15 13 5 19 57 27 67 10z m208 -34 c105 -9 222 -24 233 -30 14 -9 11 -52 -4
-58 -19 -7 -34 4 -40 28 -4 19 -5 19 -6 -1 -1 -20 -6 -21 -61 -18 -46 3 -61 0
-68 -12 -8 -15 -11 -14 -23 3 -20 29 -65 38 -78 16 -9 -17 -10 -17 -16 0 -4 9
-16 17 -26 17 -14 0 -19 7 -19 28 0 33 8 45 28 37 7 -2 43 -7 80 -10z m304
-52 c3 -21 1 -47 -3 -58 -7 -18 -8 -18 -8 -1 -1 12 -6 16 -16 12 -10 -4 -17 3
-21 22 -3 15 -7 32 -9 39 -5 16 5 23 31 23 18 0 23 -7 26 -37z m-1044 11 c19
-3 32 -1 32 6 0 5 7 10 15 10 8 0 15 -7 15 -15 0 -12 4 -13 18 -6 16 8 18 5
21 -30 l2 -40 -63 6 c-35 4 -82 10 -105 15 -24 4 -43 4 -43 -1 0 -5 -6 -9 -13
-9 -18 0 -41 45 -33 65 6 16 43 16 154 -1z m-2467 -21 c-41 -58 -79 -98 -86
-91 -8 8 82 118 97 118 5 0 0 -12 -11 -27z m2615 10 c20 -27 17 -61 -7 -74
-13 -6 -19 -7 -15 -1 3 6 1 12 -5 14 -8 3 -10 16 -5 41 8 42 13 45 32 20z
m117 -21 c18 -2 26 1 22 7 -3 6 -2 11 4 11 5 0 13 -5 16 -10 4 -7 24 -8 51 -4
33 5 47 2 59 -10 9 -9 30 -16 46 -16 25 0 29 4 30 28 l1 27 7 -30 c4 -20 12
-29 23 -27 9 1 28 -2 42 -8 20 -7 26 -16 26 -41 0 -30 -1 -31 -32 -25 -18 3
-76 10 -128 16 -219 24 -250 30 -256 56 -7 28 2 45 20 38 8 -3 17 0 22 7 6 10
9 9 13 -2 3 -8 19 -15 34 -17z m164 22 c-3 -3 -12 -4 -19 -1 -8 3 -5 6 6 6 11
1 17 -2 13 -5z m653 -10 c0 -2 -7 -4 -15 -4 -8 0 -15 4 -15 10 0 5 7 7 15 4 8
-4 15 -8 15 -10z m-3460 -25 c0 -7 -26 -44 -57 -83 -31 -39 -58 -73 -59 -75
-2 -2 -10 -1 -19 3 -12 4 -2 23 50 86 64 76 85 94 85 69z m3060 -23 c0 -13
100 -32 142 -27 13 2 48 -47 48 -67 0 -2 -24 -1 -52 3 -29 3 -75 9 -102 11
-61 6 -66 9 -66 40 0 13 -5 24 -11 24 -7 0 -9 -10 -5 -25 5 -18 2 -25 -8 -25
-18 0 -28 26 -20 56 5 19 13 24 40 24 22 0 34 -5 34 -14z m-2950 -57 c0 -7
-36 -56 -80 -110 -44 -53 -80 -102 -80 -108 0 -6 -4 -11 -10 -11 -5 0 -9 -3
-7 -7 2 -8 -6 -13 -21 -13 -8 0 -32 43 -32 57 0 3 9 3 20 0 17 -4 36 14 103
98 75 95 107 123 107 94z m-830 -139 c0 -11 -7 -20 -15 -20 -8 0 -15 9 -15 20
0 11 7 20 15 20 8 0 15 -9 15 -20z m3109 -99 c24 -24 41 -52 45 -75 5 -26 14
-40 32 -46 31 -12 31 -30 0 -30 -19 0 -26 -7 -31 -30 -3 -16 -23 -43 -42 -61
-30 -26 -42 -30 -71 -26 -19 4 -45 13 -58 22 -27 17 -64 84 -64 115 0 15 -7
20 -25 20 -16 0 -25 6 -25 15 0 9 9 15 24 15 18 0 25 7 30 32 10 53 52 88 103
88 37 0 49 -6 82 -39z m1579 -192 c-3 -20 -5 -19 -9 9 -3 20 -2 29 4 23 5 -5
7 -19 5 -32z m-6628 -129 c-6 -11 -9 -24 -6 -28 3 -5 -6 -16 -19 -26 -13 -10
-27 -32 -31 -49 -3 -18 -11 -38 -16 -44 -26 -32 -98 5 -98 50 0 17 12 27 54
45 30 13 69 34 87 47 42 30 42 30 29 5z m249 -10 c8 -24 7 -30 -5 -30 -9 0
-14 10 -14 30 0 17 2 30 4 30 2 0 9 -13 15 -30z m1419 10 c48 -29 74 -77 67
-122 -15 -104 -18 -117 -26 -112 -5 3 -15 -8 -21 -23 -7 -15 -18 -34 -25 -41
-7 -7 -20 -26 -29 -42 -10 -16 -26 -31 -37 -34 -12 -3 -16 -9 -11 -17 4 -7 3
-10 -4 -6 -5 4 -21 -12 -35 -36 -28 -47 -46 -160 -28 -172 6 -3 37 9 68 28 50
29 58 37 55 60 -5 38 12 34 38 -10 19 -32 21 -49 19 -155 -2 -65 1 -122 7
-127 5 -4 45 -14 89 -21 44 -7 166 -30 270 -51 105 -20 212 -41 239 -45 62 -9
57 -11 -137 -72 -180 -56 -207 -71 -207 -110 0 -16 -5 -33 -11 -39 -8 -8 -5
-15 12 -26 26 -17 1051 -228 1869 -386 362 -70 401 -68 824 44 l288 77 362
-67 c198 -37 440 -82 536 -100 96 -17 175 -34 175 -37 0 -2 -28 -28 -62 -57
-35 -28 -63 -58 -63 -67 0 -8 -10 -19 -22 -24 -13 -6 -174 -44 -358 -85 -184
-42 -344 -79 -355 -82 -18 -6 -18 -7 5 -14 15 -4 18 -7 8 -8 -9 -1 -33 -10
-53 -22 -55 -33 -102 -40 -152 -23 -42 15 -51 14 -222 -26 l-178 -41 -149 35
c-441 104 -545 126 -601 126 -67 0 -195 -25 -518 -100 -121 -28 -407 -93 -635
-145 -543 -123 -544 -123 -624 -146 -90 -27 -107 -47 -103 -119 2 -30 7 -62
11 -71 5 -12 1 -18 -18 -23 -34 -8 -33 -32 2 -50 15 -7 126 -45 247 -84 121
-39 258 -83 305 -98 68 -22 104 -27 180 -27 83 0 130 9 370 67 151 37 376 92
500 122 124 30 236 58 250 64 14 5 41 12 62 16 l36 6 -24 -66 -24 -66 23 -10
c12 -5 57 -19 100 -31 73 -21 77 -24 77 -50 0 -31 6 -29 -163 -70 -60 -14
-102 -29 -107 -39 -16 -29 -150 -400 -150 -414 0 -8 8 -17 18 -21 16 -7 15 -8
-3 -14 -20 -8 -19 -8 540 -191 138 -45 379 -124 537 -176 158 -52 295 -94 305
-94 11 0 23 -4 29 -9 10 -10 67 -30 314 -109 307 -99 1028 -336 1665 -547 466
-155 685 -223 775 -241 144 -28 191 -42 205 -60 6 -7 26 -14 45 -16 23 -2 35
-8 35 -18 0 -11 -10 -14 -37 -12 l-38 3 0 -46 c0 -41 -2 -46 -18 -40 -11 3
-32 -1 -48 -10 -16 -8 -34 -15 -40 -15 -7 0 -14 -7 -18 -15 -3 -8 -11 -15 -19
-15 -14 0 -79 -28 -137 -59 -39 -21 -172 -73 -237 -93 -24 -7 -43 -16 -43 -20
0 -5 -13 -8 -29 -8 -40 0 -61 -9 -61 -26 0 -12 -4 -13 -27 -1 -27 14 -433 158
-483 172 -14 4 -38 13 -55 21 -35 15 -154 60 -205 77 -19 6 -37 14 -40 17 -6
6 -162 63 -285 103 -44 14 -154 52 -245 85 -372 134 -496 178 -720 257 -129
46 -413 147 -630 225 -418 150 -886 317 -1135 405 -82 30 -251 90 -375 135
-124 45 -324 117 -445 160 -121 43 -296 106 -390 140 -93 34 -213 77 -265 95
-52 19 -194 71 -315 115 -121 45 -256 94 -300 110 -44 15 -143 51 -220 80 -77
29 -177 66 -222 83 -46 17 -83 33 -83 36 1 3 35 35 77 71 104 88 193 174 193
188 0 6 -12 24 -26 41 l-25 30 40 44 c47 51 80 118 96 197 10 52 14 57 60 82
28 16 76 37 107 49 61 23 101 54 95 72 -2 7 -21 18 -43 24 -58 19 -124 56
-124 70 0 19 48 109 66 124 8 6 14 15 14 19 0 5 14 23 30 42 59 64 130 151
130 158 0 4 12 20 26 36 48 55 67 105 73 191 6 81 6 81 -14 65 -11 -9 -23 -21
-27 -27 -4 -5 -8 -6 -8 -2 0 10 38 67 54 82 14 12 56 83 56 94 0 5 -13 14 -29
21 -16 6 -37 20 -46 30 -17 19 -17 24 11 213 5 33 4 37 -15 37 -12 0 -21 5
-21 11 0 15 -59 1 -92 -23 -21 -14 -36 -17 -63 -12 -19 3 -32 10 -29 15 3 5 1
9 -5 9 -6 0 -8 7 -5 15 4 8 1 15 -6 15 -9 0 -8 6 3 18 24 26 21 67 -5 92 -18
17 -19 20 -5 20 13 0 17 9 17 33 -1 36 -20 67 -42 67 -8 0 -22 8 -31 18 -13
14 -31 17 -96 16 -45 -1 -87 -6 -94 -12 -6 -6 -23 -12 -37 -14 -14 -1 -29 -12
-34 -24 -5 -11 -22 -26 -37 -33 -17 -7 -26 -18 -23 -26 4 -8 -3 -15 -18 -17
-13 -2 -22 -9 -21 -16 2 -7 -7 -12 -20 -12 -14 0 -28 -9 -36 -22 -10 -20 -20
-23 -64 -22 -31 0 -59 -5 -69 -14 -9 -8 -22 -11 -28 -7 -12 7 -108 -24 -127
-41 -20 -19 -110 4 -117 28 -3 15 -11 19 -25 15 -23 -6 -27 3 -10 20 8 8 5 14
-10 22 -12 7 -21 19 -21 29 0 9 -20 33 -44 52 -61 48 -69 65 -67 135 1 61 25
160 43 182 5 7 7 17 3 23 -3 5 1 13 9 16 17 7 22 54 6 54 -5 0 -10 5 -10 11 0
14 47 59 62 59 6 0 8 9 5 19 -3 11 1 22 9 25 10 4 13 20 10 55 -3 45 -1 50 20
55 47 12 99 -40 129 -129 21 -61 21 -116 0 -175 -24 -67 -44 -214 -35 -255 11
-48 21 -58 78 -78 l50 -18 54 27 c202 102 397 257 558 444 58 67 117 136 133
153 15 18 34 40 42 50 20 23 62 22 103 -3z m-1481 -6 c-3 -3 -12 -4 -19 -1 -8
3 -5 6 6 6 11 1 17 -2 13 -5z m-92 -14 c-3 -5 -18 -10 -33 -10 -21 0 -24 2
-12 10 20 13 53 13 45 0z m6583 -225 c0 -36 -4 -45 -18 -45 -17 0 -18 10 -4
78 8 38 23 15 22 -33z m-6900 -215 c-12 -16 -26 -30 -31 -30 -5 0 -7 -7 -4
-15 4 -8 2 -17 -3 -20 -28 -17 0 60 29 82 28 22 32 14 9 -17z m6250 -36 c37
-10 25 -24 -23 -24 -33 0 -45 4 -45 15 0 16 28 19 68 9z m-6933 -261 c-3 -8
-5 -24 -5 -35 0 -29 -8 -19 -14 18 -4 23 -2 31 10 31 9 0 13 -6 9 -14z m1922
1 c-3 -3 -12 -4 -19 -1 -8 3 -5 6 6 6 11 1 17 -2 13 -5z m213 -58 c42 -10 50
-15 35 -21 -11 -3 -29 -10 -40 -14 -30 -10 -75 -2 -75 15 0 8 -5 14 -11 14 -5
0 -7 5 -4 10 8 13 28 12 95 -4z m-3175 -38 c33 1 107 4 165 7 92 6 112 4 161
-14 31 -12 68 -35 85 -53 23 -26 24 -29 4 -12 -27 23 -74 45 -133 64 -42 13
-163 7 -228 -12 -28 -8 -59 -6 -133 7 l-97 18 -125 -62 c-136 -66 -155 -66
-41 1 94 55 146 70 222 61 33 -3 87 -6 120 -5z m3037 -41 c8 -13 -1 -37 -14
-37 -5 0 -6 5 -3 10 6 10 -6 14 -37 11 -17 -2 -25 19 -13 31 8 8 59 -4 67 -15z
m-2557 -87 c3 -5 -1 -10 -10 -10 -9 0 -13 5 -10 10 3 6 8 10 10 10 2 0 7 -4
10 -10z m-1735 -47 c0 -20 -68 -99 -77 -89 -7 6 58 105 70 106 4 0 7 -8 7 -17z
m5590 -93 c0 -12 -17 -12 -45 0 -17 7 -15 9 13 9 17 1 32 -3 32 -9z m-1326
-25 c17 -13 18 -15 3 -15 -9 0 -17 4 -17 9 0 5 -8 12 -17 14 -13 3 -14 5 -3 6
8 0 24 -6 34 -14z m-45 -10 c9 -5 9 -10 0 -21 -10 -12 -8 -16 9 -21 34 -9 26
-18 -17 -19 -31 -1 -40 3 -44 17 -3 11 -13 19 -24 19 -15 0 -16 2 -3 10 13 8
12 10 -2 10 -10 0 -18 3 -18 8 0 9 84 7 99 -3z m181 -36 c-42 -12 -57 -8 -25
6 17 7 34 10 40 7 5 -3 -1 -9 -15 -13z m-179 -51 c11 -21 11 -22 -4 -9 -10 7
-17 17 -17 22 0 15 9 10 21 -13z m159 0 c0 -10 -9 -9 -35 2 -17 8 -16 8 8 7
15 -1 27 -5 27 -9z m3217 -93 c51 -10 91 -21 88 -25 -4 -7 -168 -70 -182 -70
-3 0 5 8 18 19 l23 18 -37 14 c-20 7 -37 18 -37 25 0 23 12 43 23 39 7 -2 54
-11 104 -20z m-148 -199 c-8 -8 -98 -10 -105 -3 -4 4 19 7 51 7 32 0 56 -2 54
-4z m2121 -116 c0 -5 -4 -10 -10 -10 -5 0 -10 5 -10 10 0 6 5 10 10 10 6 0 10
-4 10 -10z m-285 -40 c-3 -5 -11 -10 -16 -10 -6 0 -7 5 -4 10 3 6 11 10 16 10
6 0 7 -4 4 -10z m310 -80 c8 -13 -25 -13 -45 0 -12 8 -9 10 12 10 15 0 30 -4
33 -10z m-270 -40 c-3 -5 -21 -10 -38 -9 -27 0 -29 2 -12 9 28 12 57 12 50 0z
m305 -50 c0 -5 -11 -17 -25 -26 -20 -13 -28 -14 -40 -4 -9 7 -15 8 -15 2 0 -9
-84 -27 -94 -20 -2 2 -15 -7 -29 -20 -22 -21 -24 -21 -39 -5 -35 42 -31 51 30
58 31 3 77 10 102 14 64 12 110 13 110 1z m-130 -74 c0 -3 -4 -8 -10 -11 -5
-3 -10 -1 -10 4 0 6 5 11 10 11 6 0 10 -2 10 -4z m125 -24 c22 -4 36 -10 30
-13 -16 -8 -115 2 -115 12 0 11 29 11 85 1z m1409 -28 c14 -5 13 -10 -6 -30
-31 -32 -45 -30 -50 6 -4 26 -1 30 18 30 12 0 29 -3 38 -6z m-1879 -94 c3 -5
1 -10 -4 -10 -6 0 -11 5 -11 10 0 6 2 10 4 10 3 0 8 -4 11 -10z m1692 -36 c-3
-3 -12 -4 -19 -1 -8 3 -5 6 6 6 11 1 17 -2 13 -5z m-497 -8 c0 -2 -7 -9 -15
-16 -12 -10 -15 -10 -15 4 0 9 7 16 15 16 8 0 15 -2 15 -4z m60 -31 c0 -8 -9
-15 -20 -15 -20 0 -26 11 -13 23 12 13 33 7 33 -8z m88 -7 c-3 -7 -20 -13 -38
-13 -18 0 -35 6 -37 13 -3 8 8 12 37 12 29 0 40 -4 38 -12z m-4675 -113 c-3
-9 -8 -14 -10 -11 -3 3 -2 9 2 15 9 16 15 13 8 -4z m-214 -47 c-11 -29 -24
-71 -29 -93 l-8 -40 -1 34 c-1 35 38 151 51 151 4 0 -2 -24 -13 -52z m2011 42
c0 -5 -2 -10 -4 -10 -3 0 -8 5 -11 10 -3 6 -1 10 4 10 6 0 11 -4 11 -10z
m-1701 -97 c66 -78 76 -101 13 -32 -36 40 -106 134 -85 114 6 -5 38 -43 72
-82z m4777 27 c19 -8 24 -14 17 -21 -14 -14 -86 8 -78 22 8 12 27 11 61 -1z
m-736 -50 c159 -36 225 -53 230 -61 3 -5 35 -27 70 -51 l65 -42 -55 -8 c-110
-16 -251 15 -402 86 -55 27 -65 43 -40 68 7 7 12 18 12 25 0 7 6 11 13 9 6 -3
55 -14 107 -26z m-1653 -2 c-3 -8 -6 -5 -6 6 -1 11 2 17 5 13 3 -3 4 -12 1
-19z m-2435 -93 c13 -25 3 -14 -51 55 l-43 55 42 -45 c23 -24 46 -54 52 -65z
m2455 83 c-3 -8 -6 -5 -6 6 -1 11 2 17 5 13 3 -3 4 -12 1 -19z m41 4 c2 -7 -1
-12 -8 -12 -6 0 -9 4 -6 9 4 5 1 12 -4 14 -6 3 -5 4 2 3 6 -1 14 -8 16 -14z
m46 -8 c3 -8 2 -12 -4 -9 -6 3 -10 10 -10 16 0 14 7 11 14 -7z m165 -16 c-1
-20 -2 -20 -6 -4 -4 15 -7 16 -14 5 -7 -11 -9 -11 -9 4 0 9 7 17 15 17 9 0 15
-9 14 -22z m41 3 c0 -11 -4 -22 -9 -25 -5 -4 -7 4 -3 16 3 14 2 19 -6 14 -7
-4 -12 -2 -12 3 0 6 7 11 15 11 8 0 15 -9 15 -19z m43 -9 c-6 -13 -8 -13 -14
4 -7 19 -8 19 -8 0 -1 -11 -4 -17 -7 -13 -12 11 5 37 20 31 9 -3 12 -12 9 -22z
m37 24 c0 -3 -4 -8 -10 -11 -5 -3 -10 -1 -10 4 0 6 5 11 10 11 6 0 10 -2 10
-4z m80 -6 c0 -5 -7 -7 -15 -4 -8 4 -15 8 -15 10 0 2 7 4 15 4 8 0 15 -4 15
-10z m23 -5 c-3 -9 -8 -14 -10 -11 -3 3 -2 9 2 15 9 16 15 13 8 -4z m47 -3 c0
-12 -3 -12 -15 -2 -8 7 -15 13 -15 15 0 1 7 2 15 2 8 0 15 -7 15 -15z m-150
-16 c0 -3 -4 -8 -10 -11 -5 -3 -10 -1 -10 4 0 6 5 11 10 11 6 0 10 -2 10 -4z
m-3385 -84 c-3 -3 -11 0 -18 7 -9 10 -8 11 6 5 10 -3 15 -9 12 -12z m58 -6 c4
-10 1 -13 -8 -9 -8 3 -12 9 -9 14 7 12 11 11 17 -5z m102 4 c13 -6 15 -9 5 -9
-8 0 -22 4 -30 9 -18 12 -2 12 25 0z m5934 -2244 c-8 -8 -79 -35 -79 -30 0 6
60 33 74 34 5 0 7 -2 5 -4z"/>
<path d="M7544 10774 c-2 -8 -6 -21 -9 -30 -3 -10 -12 -14 -24 -11 -29 7 -66
-36 -63 -74 1 -16 -3 -40 -10 -52 -12 -21 -15 -36 -21 -128 -1 -20 -8 -43 -16
-52 -9 -11 -10 -17 -2 -17 16 0 13 -21 -6 -43 -10 -11 -12 -17 -5 -13 14 9 17
-59 3 -96 -4 -13 -5 -31 -2 -41 13 -35 32 6 47 100 8 48 18 95 21 103 6 14 8
26 17 90 8 60 19 92 27 78 7 -10 9 -9 9 5 0 9 -7 17 -15 17 -8 0 -15 5 -15 11
0 15 26 39 34 32 3 -4 6 8 6 25 0 18 5 32 10 32 6 0 13 8 17 18 3 9 14 26 24
37 18 20 18 21 -2 22 -11 1 -22 -5 -25 -13z"/>
<path d="M6843 10726 c-23 -21 -25 -24 -8 -20 12 3 26 14 33 25 16 26 9 24
-25 -5z"/>
<path d="M7083 10572 c-78 -28 -94 -42 -113 -104 l-18 -57 29 6 c22 4 30 1 36
-12 14 -38 -103 -219 -243 -373 -49 -54 -64 -76 -55 -85 13 -13 27 3 199 217
120 149 231 310 252 364 10 25 10 35 0 47 -16 19 -23 18 -87 -3z"/>
<path d="M6883 10554 c-18 -14 -48 -55 -68 -92 -41 -75 -155 -337 -155 -355 0
-23 167 155 178 189 5 19 9 34 7 34 -2 0 -16 -19 -30 -42 -22 -35 -26 -38 -21
-16 3 15 1 38 -5 52 -12 25 -5 76 10 76 5 0 11 -10 14 -22 4 -12 8 -20 11 -18
8 9 97 212 94 216 -2 1 -18 -8 -35 -22z"/>
<path d="M6956 10563 c-6 -14 -5 -15 5 -6 7 7 10 15 7 18 -3 3 -9 -2 -12 -12z"/>
<path d="M6609 10508 l-44 -32 44 -13 c24 -7 49 -20 56 -29 13 -18 39 -10 32
9 -2 6 2 23 9 36 14 27 10 41 -12 41 -8 0 -14 5 -14 10 0 18 -27 10 -71 -22z
m51 8 c0 -2 -7 -7 -16 -10 -8 -3 -12 -2 -9 4 6 10 25 14 25 6z"/>
<path d="M6415 10511 c-3 -6 -1 -11 6 -11 7 0 21 -8 32 -17 14 -13 19 -14 15
-4 -6 22 -45 44 -53 32z"/>
<path d="M6922 10488 c-6 -7 -26 -63 -46 -123 -30 -94 -42 -117 -77 -150 -22
-22 -52 -62 -66 -90 l-25 -50 42 40 c47 45 105 135 116 180 3 17 15 39 24 50
19 21 57 142 48 151 -3 2 -10 -1 -16 -8z"/>
<path d="M6455 10450 c-16 -7 -17 -9 -3 -9 9 -1 20 4 23 9 7 11 7 11 -20 0z"/>
<path d="M6694 10402 c-6 -4 -16 -20 -21 -37 -6 -16 -14 -38 -18 -47 -4 -10
-3 -18 2 -18 11 0 59 97 52 104 -3 3 -9 2 -15 -2z"/>
<path d="M6962 10377 c-21 -22 -41 -71 -56 -132 l-7 -30 26 35 c30 39 75 124
75 140 0 16 -15 12 -38 -13z"/>
<path d="M7329 10373 c-58 -63 -243 -287 -232 -280 7 4 60 65 119 135 59 70
116 137 127 150 11 12 18 22 16 22 -3 0 -17 -12 -30 -27z"/>
<path d="M6570 10358 c-24 -15 -30 -23 -19 -25 21 -5 94 20 94 32 0 19 -40 15
-75 -7z"/>
<path d="M7300 10298 l-43 -53 48 47 c27 26 46 50 43 53 -3 3 -25 -18 -48 -47z"/>
<path d="M7326 10271 c-17 -18 -42 -149 -33 -174 7 -22 31 38 44 112 7 41 11
76 9 78 -1 2 -11 -5 -20 -16z"/>
<path d="M6610 10182 c-14 -9 -28 -21 -32 -27 -15 -20 -8 -80 13 -115 31 -52
95 -98 69 -50 -13 24 -15 78 -7 153 7 63 1 69 -43 39z"/>
<path d="M7229 10182 c-10 -10 -21 -51 -28 -102 -33 -236 -64 -406 -78 -422
-10 -12 -11 -18 -3 -23 8 -5 10 -21 5 -49 -4 -22 -8 -52 -10 -66 -1 -14 -5
-35 -9 -47 -4 -12 -3 -24 2 -27 10 -6 44 27 41 40 -1 5 0 11 1 14 1 3 4 22 6
44 1 21 11 47 21 58 14 16 15 23 5 38 -15 24 -15 31 -1 67 10 24 15 60 20 138
1 11 6 47 11 80 5 33 11 74 14 90 2 17 6 44 8 60 21 143 21 135 -5 107z"/>
<path d="M6814 10128 c-66 -69 -128 -147 -122 -154 3 -3 23 15 44 39 47 54
137 167 132 167 -2 0 -26 -24 -54 -52z"/>
<path d="M6242 10148 c-18 -18 -15 -25 17 -36 28 -10 29 -9 22 16 -8 30 -22
37 -39 20z"/>
<path d="M6130 10105 c-7 -9 -10 -18 -6 -22 3 -4 13 2 21 13 14 18 14 18 15
-6 1 -22 2 -23 11 -7 19 33 -16 52 -41 22z"/>
<path d="M6675 10090 c-10 -11 -15 -23 -12 -27 7 -6 36 25 37 40 0 11 -6 8
-25 -13z"/>
<path d="M7132 10087 c-7 -8 -29 -118 -47 -244 -43 -282 -43 -281 -63 -286
-14 -4 -14 -5 2 -6 15 -1 17 -6 12 -33 -3 -18 -10 -34 -14 -38 -11 -8 -9 -121
2 -117 19 6 41 59 40 93 -1 18 4 38 12 45 8 6 11 21 8 34 -5 22 22 255 52 437
9 53 14 105 12 114 -3 15 -4 16 -16 1z"/>
<path d="M6192 10079 c2 -6 14 -16 26 -20 29 -11 28 -5 -4 16 -17 11 -25 12
-22 4z"/>
<path d="M6291 10073 c-1 -12 4 -25 9 -28 12 -7 12 2 0 30 -8 19 -9 19 -9 -2z"/>
<path d="M7036 9994 c-9 -8 -16 -21 -16 -27 0 -12 -59 -406 -66 -442 -2 -11
-6 -38 -9 -60 -12 -99 -15 -105 -41 -105 -19 0 -24 4 -20 18 3 9 10 53 16 97
20 143 60 409 66 435 l5 25 -20 -20 c-20 -19 -36 -110 -100 -562 -4 -28 -13
-59 -20 -67 -10 -12 -10 -16 -1 -16 8 0 9 -10 5 -30 -4 -16 -2 -30 3 -30 11 0
28 35 37 75 7 30 31 65 46 65 4 0 9 -17 11 -37 l4 -38 13 30 c15 32 16 39 26
130 4 33 11 68 16 77 5 9 9 36 9 59 0 35 28 240 56 407 6 36 2 39 -20 16z"/>
<path d="M6660 9901 c0 -17 25 -30 40 -20 13 8 13 10 0 19 -19 12 -40 13 -40
1z"/>
<path d="M5829 9787 c-35 -44 -83 -115 -104 -156 l-17 -34 61 48 c34 26 87 72
119 100 48 45 53 52 31 48 -16 -3 -32 1 -42 11 -19 20 -17 21 -48 -17z"/>
<path d="M6080 9790 c0 -5 4 -10 9 -10 6 0 13 5 16 10 3 6 -1 10 -9 10 -9 0
-16 -4 -16 -10z"/>
<path d="M6065 9760 c3 -5 15 -10 26 -10 10 0 19 5 19 10 0 6 -12 10 -26 10
-14 0 -23 -4 -19 -10z"/>
<path d="M6801 9702 c-36 -60 -62 -132 -48 -132 3 0 20 30 37 68 72 151 76
174 11 64z"/>
<path d="M6827 9657 c-14 -36 -59 -293 -73 -422 -2 -22 -7 -55 -10 -73 -5 -30
-3 -33 12 -24 9 5 19 23 20 40 2 17 20 138 39 268 20 130 35 240 33 245 -2 5
-11 -10 -21 -34z"/>
<path d="M5641 9518 c-61 -50 -66 -67 -19 -68 9 0 19 -4 22 -8 3 -5 -15 -6
-40 -2 -41 6 -48 4 -90 -28 l-45 -36 25 -13 c23 -12 30 -11 63 10 46 29 110
53 119 45 3 -4 -14 -31 -37 -62 -40 -49 -48 -55 -83 -55 -35 -1 -126 -42 -126
-57 0 -3 14 -17 30 -31 17 -13 30 -29 30 -34 0 -12 -17 -2 -61 35 l-33 28 47
44 47 45 -24 11 c-21 9 -30 6 -65 -23 -34 -29 -42 -44 -56 -104 -9 -38 -19
-77 -21 -86 -4 -14 3 -15 45 -11 43 4 51 2 65 -20 8 -13 19 -48 23 -77 l8 -52
35 23 c37 25 52 63 70 176 11 68 37 132 54 132 6 0 17 14 25 31 7 17 44 68 82
114 38 46 65 86 60 90 -6 3 -28 12 -49 19 l-39 14 -62 -50z"/>
<path d="M5460 9430 c0 -11 2 -20 5 -20 2 0 9 9 15 20 9 16 8 20 -5 20 -8 0
-15 -9 -15 -20z"/>
<path d="M5412 9390 c0 -14 2 -19 5 -12 2 6 2 18 0 25 -3 6 -5 1 -5 -13z"/>
<path d="M7167 9243 c-4 -3 -7 -11 -7 -17 0 -6 5 -5 12 2 6 6 9 14 7 17 -3 3
-9 2 -12 -2z"/>
<path d="M7103 9192 c-18 -9 -33 -21 -33 -27 0 -7 -9 -20 -20 -30 -28 -25 -17
-31 12 -6 12 11 36 31 53 45 36 31 31 39 -12 18z"/>
<path d="M6976 9088 c-9 -17 -14 -34 -11 -36 9 -10 54 40 48 54 -8 22 -20 16
-37 -18z"/>
<path d="M6890 9034 c-8 -8 -15 -27 -16 -41 -3 -24 -2 -24 16 -8 18 16 33 65
20 65 -4 0 -13 -7 -20 -16z"/>
<path d="M6796 8964 c-19 -20 -23 -30 -15 -40 16 -19 37 -6 44 28 9 40 3 43
-29 12z"/>
<path d="M6984 8947 c-2 -7 2 -29 10 -48 l15 -34 1 48 c0 44 -14 63 -26 34z"/>
<path d="M5579 8793 c-13 -16 -12 -17 4 -4 9 7 17 15 17 17 0 8 -8 3 -21 -13z"/>
<path d="M5635 8800 c-7 -11 44 -34 53 -25 6 5 -27 34 -40 35 -4 0 -10 -5 -13
-10z"/>
<path d="M5112 8775 c0 -16 2 -22 5 -12 2 9 2 23 0 30 -3 6 -5 -1 -5 -18z"/>
<path d="M5544 8736 c-10 -25 0 -38 13 -17 8 13 9 22 3 26 -6 4 -13 -1 -16 -9z"/>
<path d="M5618 8732 c-24 -5 -21 -59 3 -65 12 -3 19 0 19 8 0 7 5 15 12 17 18
6 -14 45 -34 40z"/>
<path d="M5698 8712 c-2 -9 2 -28 9 -42 13 -25 13 -25 13 12 0 39 -15 60 -22
30z"/>
<path d="M5537 8654 c-7 -7 5 -54 14 -54 5 0 9 4 9 9 0 5 3 16 6 24 5 13 -19
31 -29 21z"/>
<path d="M5641 8588 c-13 -21 1 -32 29 -23 26 8 27 44 1 42 -10 0 -24 -9 -30
-19z"/>
<path d="M6776 8579 c-10 -27 -36 -163 -32 -166 2 -3 13 35 25 83 11 49 18 90
16 92 -3 3 -7 -1 -9 -9z"/>
<path d="M5575 8560 c-4 -6 -4 -10 -1 -10 2 0 11 -3 20 -6 9 -3 16 -2 16 4 0
14 -28 23 -35 12z"/>
<path d="M5632 7924 c-34 -31 -62 -63 -62 -73 1 -11 12 -3 37 24 24 27 37 36
40 27 3 -9 15 2 30 28 14 23 23 43 21 46 -3 2 -33 -21 -66 -52z"/>
<path d="M5292 7920 c0 -14 2 -19 5 -12 2 6 2 18 0 25 -3 6 -5 1 -5 -13z"/>
<path d="M5489 7877 c-61 -47 -81 -70 -86 -98 l-4 -30 30 15 c16 9 33 20 36
26 10 15 45 12 45 -5 0 -8 -9 -37 -20 -65 -22 -56 -25 -74 -10 -65 9 6 35 83
45 136 5 27 -5 99 -14 99 -3 0 -13 -6 -22 -13z"/>
<path d="M5445 7750 c-31 -31 -35 -40 -21 -40 16 0 18 -6 13 -35 -3 -19 -4
-35 -2 -35 3 0 12 16 20 35 8 19 22 51 30 69 21 50 5 52 -40 6z"/>
<path d="M5249 7687 c-46 -35 -84 -70 -84 -78 0 -26 42 -20 101 15 33 20 67
36 78 36 16 0 18 5 13 37 -4 20 -10 40 -15 45 -5 5 -45 -19 -93 -55z"/>
<path d="M5521 7718 l-11 -33 20 25 c21 27 25 40 11 40 -5 0 -14 -15 -20 -32z"/>
<path d="M5535 7679 c-22 -29 -52 -66 -67 -84 -16 -18 -28 -39 -28 -46 1 -16
50 38 88 96 14 22 32 45 40 52 8 6 12 17 10 23 -1 5 -21 -13 -43 -41z"/>
<path d="M5393 7554 c-3 -10 -28 -70 -54 -131 -48 -114 -52 -139 -12 -80 23
35 87 217 79 225 -3 3 -9 -4 -13 -14z"/>
<path d="M5148 7470 c-25 -25 -27 -32 -21 -76 11 -81 26 -82 51 -5 36 111 26
137 -30 81z"/>
<path d="M8879 10346 c-180 -68 -294 -281 -276 -516 7 -81 30 -171 50 -192 6
-8 13 -20 15 -28 5 -23 51 -90 62 -90 6 0 10 -6 10 -13 0 -21 50 -62 119 -96
86 -42 175 -43 259 -5 64 29 105 62 95 77 -3 6 -1 7 4 4 12 -8 65 48 87 92 82
157 87 371 14 528 -50 110 -140 200 -233 235 -51 19 -159 21 -206 4z m18 -32
c-3 -3 -12 -4 -19 -1 -8 3 -5 6 6 6 11 1 17 -2 13 -5z m-34 -101 c-7 -2 -21
-2 -30 0 -10 3 -4 5 12 5 17 0 24 -2 18 -5z m381 -24 c-3 -5 0 -8 8 -7 7 2 12
-3 11 -9 -2 -7 2 -12 8 -10 6 1 14 -4 17 -12 3 -10 0 -12 -12 -8 -10 4 -24 7
-32 7 -9 0 -14 11 -14 31 0 18 4 28 10 24 6 -4 8 -11 4 -16z m-201 -5 c3 -4
-3 -24 -14 -45 l-19 -39 -125 0 c-69 0 -125 2 -125 5 0 3 9 24 20 45 l20 40
119 0 c65 0 120 -3 124 -6z m86 -49 c13 -30 28 -52 34 -48 5 3 7 2 4 -4 -6 -9
81 -190 105 -220 5 -7 8 -22 6 -35 -2 -18 -10 -24 -35 -26 -28 -3 -35 2 -58
37 -24 39 -28 41 -75 41 -57 0 -67 10 -45 44 9 14 13 31 9 37 -4 7 -3 9 2 6
17 -10 33 8 27 31 -3 12 -10 19 -15 16 -5 -3 -7 -13 -4 -21 3 -8 2 -12 -2 -9
-8 5 -84 -145 -82 -161 1 -5 -8 -10 -20 -13 -35 -9 -300 1 -300 10 0 5 12 35
26 66 l26 57 -29 24 c-15 13 -23 22 -17 19 6 -3 18 10 27 29 l17 35 109 0 c64
0 112 -4 116 -10 4 -6 -2 -27 -12 -48 -17 -35 -21 -37 -69 -40 -43 -2 -53 -7
-62 -27 l-12 -25 68 0 68 0 72 145 c39 80 77 145 84 145 8 0 24 -25 37 -55z
m178 -37 c23 -68 22 -81 -2 -29 -28 60 -28 61 -17 61 4 0 13 -15 19 -32z
m-267 -294 c0 -2 -7 -4 -15 -4 -8 0 -15 4 -15 10 0 5 7 7 15 4 8 -4 15 -8 15
-10z m42 -28 c6 -8 8 -7 8 2 0 8 18 12 56 12 41 0 53 -3 48 -12 -6 -9 -3 -9 9
0 12 10 31 12 67 7 55 -8 60 -15 29 -46 -15 -15 -18 -24 -10 -32 15 -15 14
-70 -1 -85 -7 -7 -26 -12 -43 -12 -37 0 -55 16 -55 47 0 13 5 23 12 23 9 0 9
3 0 12 -7 7 -12 22 -12 35 0 16 -4 21 -15 17 -11 -5 -15 -22 -15 -70 0 -57 -2
-64 -20 -64 -18 0 -20 7 -20 65 0 51 -3 63 -14 59 -20 -8 -26 -55 -10 -85 15
-29 10 -39 -18 -39 -11 0 -24 13 -32 33 l-14 32 -1 -32 c-1 -26 -5 -33 -21
-33 -14 0 -20 7 -21 23 l0 22 -9 -22 c-7 -16 -18 -23 -37 -23 -31 0 -57 14
-59 30 -1 5 -2 20 -4 33 -1 12 -4 16 -7 10 -2 -7 -16 -13 -29 -13 -20 0 -24
-5 -24 -31 0 -24 -4 -30 -17 -27 -15 3 -18 17 -21 91 l-3 87 39 0 c24 0 45 -6
53 -16 11 -14 13 -14 21 0 6 10 23 16 44 16 26 0 37 -5 45 -22 9 -23 9 -23 6
2 -3 24 -1 25 42 21 25 -2 49 -8 53 -15z m-314 -64 c2 -43 -2 -79 -8 -87 -16
-19 -61 -11 -81 14 -17 21 -16 56 1 46 5 -3 4 8 -2 23 -6 16 -8 41 -4 56 6 25
10 27 49 24 l42 -3 3 -73z m-58 -133 c0 -6 -4 -7 -10 -4 -5 3 -10 11 -10 16 0
6 5 7 10 4 6 -3 10 -11 10 -16z m190 -121 c0 -6 -7 -7 -16 -4 -9 3 -20 6 -25
6 -5 0 -9 4 -9 9 0 4 11 6 25 3 14 -2 25 -9 25 -14z m-46 -13 c11 -8 15 -15
10 -15 -6 0 -14 4 -19 9 -6 5 -19 11 -30 14 l-20 5 20 1 c11 0 29 -6 39 -14z"/>
<path d="M8820 9735 c0 -8 5 -15 10 -15 6 0 10 7 10 15 0 8 -4 15 -10 15 -5 0
-10 -7 -10 -15z"/>
<path d="M8927 9733 c-11 -10 -8 -61 3 -68 6 -4 10 10 10 34 0 42 -2 46 -13
34z"/>
<path d="M9235 9730 c3 -5 11 -10 16 -10 6 0 7 5 4 10 -3 6 -11 10 -16 10 -6
0 -7 -4 -4 -10z"/>
<path d="M9230 9671 c0 -6 5 -13 10 -16 6 -3 10 1 10 9 0 9 -4 16 -10 16 -5 0
-10 -4 -10 -9z"/>
<path d="M8715 9740 c-3 -5 1 -10 10 -10 9 0 13 5 10 10 -3 6 -8 10 -10 10 -2
0 -7 -4 -10 -10z"/>
<path d="M8715 9670 c3 -5 8 -10 11 -10 2 0 4 5 4 10 0 6 -5 10 -11 10 -5 0
-7 -4 -4 -10z"/>
<path d="M8861 8923 c-13 -37 -26 -74 -29 -80 -3 -9 7 -13 32 -13 34 0 36 2
35 33 0 17 -4 54 -7 80 l-7 48 -24 -68z"/>
<path d="M9945 9132 c30 -5 30 -5 5 -11 -25 -7 -25 -8 -28 -137 l-3 -131 122
-6 c67 -4 155 -7 196 -7 l73 0 0 78 c0 43 -5 83 -11 89 -6 6 -12 23 -13 37 -4
30 9 23 17 -9 3 -13 5 -9 6 13 1 23 -3 32 -15 32 -8 0 -13 4 -10 9 3 4 -3 16
-13 25 -16 15 -38 17 -150 14 -72 -2 -131 0 -131 5 0 4 -17 6 -37 6 -35 -2
-36 -2 -8 -7z m233 -19 c-21 -2 -57 -2 -80 0 -24 2 -7 4 37 4 44 0 63 -2 43
-4z m92 -24 c0 -5 -3 -8 -7 -6 -5 3 -17 -5 -28 -16 l-20 -20 23 6 c24 6 43
-17 35 -41 -3 -7 2 -21 12 -32 11 -12 13 -20 5 -25 -5 -3 -8 -11 -5 -16 4 -5
-3 -9 -14 -9 -12 0 -21 -5 -21 -11 0 -7 -8 -6 -23 3 -13 9 -35 13 -56 10 -31
-4 -33 -3 -26 18 5 15 4 20 -4 16 -6 -4 -11 -13 -11 -21 0 -10 -13 -14 -42
-13 -48 0 -60 12 -51 48 6 22 5 23 -8 10 -22 -22 -30 -48 -16 -54 7 -2 4 -5
-5 -5 -10 -1 -18 -5 -18 -11 0 -5 -4 -10 -9 -10 -16 0 -32 57 -29 106 l3 49
89 2 c49 1 92 6 95 12 4 5 27 11 51 14 25 2 53 4 63 5 9 1 17 -3 17 -9z m-323
-216 c-3 -10 -5 -2 -5 17 0 19 2 27 5 18 2 -10 2 -26 0 -35z m100 41 c-3 -3
-12 -4 -19 -1 -8 3 -5 6 6 6 11 1 17 -2 13 -5z m171 -30 c-3 -14 -5 -12 -10 9
-3 19 -2 25 4 19 6 -6 8 -18 6 -28z m82 19 c0 -10 -4 -14 -8 -8 -4 6 -11 13
-16 18 -5 4 -2 7 7 7 10 0 17 -8 17 -17z m-310 -33 c0 -5 -4 -10 -10 -10 -5 0
-10 5 -10 10 0 6 5 10 10 10 6 0 10 -4 10 -10z m40 0 c-8 -5 -19 -10 -25 -10
-5 0 -3 5 5 10 8 5 20 10 25 10 6 0 3 -5 -5 -10z"/>
<path d="M10171 9054 c0 -11 3 -14 6 -6 3 7 2 16 -1 19 -3 4 -6 -2 -5 -13z"/>
<path d="M10240 9009 c0 -4 7 -22 15 -40 10 -25 14 -29 15 -13 0 17 -29 70
-30 53z"/>
<path d="M9922 8687 l-3 -144 113 5 c68 3 116 9 120 16 6 8 8 7 8 -1 0 -9 7
-10 25 -3 19 7 23 6 19 -5 -4 -8 -22 -13 -51 -13 -24 0 -47 -3 -50 -6 -4 -3
41 -6 98 -6 71 0 99 3 89 10 -13 8 -12 10 3 10 15 0 17 13 17 125 0 130 -4
142 -44 133 -11 -2 -13 -7 -6 -18 9 -13 11 -13 19 0 9 12 11 12 16 -2 4 -10 5
-23 2 -30 -3 -7 -6 -4 -6 7 -1 13 -4 16 -9 8 -5 -8 -15 -7 -37 3 -16 8 -22 12
-12 9 10 -3 15 -1 12 5 -3 6 -15 10 -25 10 -10 0 -22 5 -26 11 -4 8 -41 10
-115 7 -60 -2 -109 -1 -109 4 0 4 -10 8 -22 8 -23 0 -23 -2 -26 -143z m205 92
c81 -1 110 -9 100 -26 -4 -6 5 -16 18 -23 14 -7 25 -20 25 -28 0 -8 8 -21 18
-28 16 -12 15 -13 -5 -14 -13 0 -23 5 -23 12 0 7 -5 5 -12 -5 -7 -9 -29 -18
-48 -20 -19 -2 -3 -5 35 -6 49 -1 66 -4 55 -11 -10 -6 -11 -10 -2 -10 6 0 12
-4 12 -10 0 -5 -7 -10 -15 -10 -8 0 -15 -8 -16 -17 0 -10 -3 -13 -5 -6 -3 7
-11 10 -19 7 -10 -4 -12 1 -9 18 4 22 4 22 -5 2 -11 -26 -35 -36 -50 -21 -7 7
-18 7 -36 -1 -14 -7 -36 -11 -48 -11 -17 1 -16 3 8 9 l30 8 -28 1 c-16 0 -37
-4 -47 -9 -15 -8 -21 -6 -29 7 -5 10 -20 18 -32 18 -22 0 -23 4 -20 50 1 28 6
54 10 58 5 4 63 4 130 0 81 -6 121 -5 121 2 0 6 -23 9 -57 7 -32 -2 -89 1
-128 5 -57 7 -70 12 -73 27 -5 23 16 38 44 31 12 -3 58 -5 101 -6z m-137 -199
c0 -5 -7 -7 -15 -4 -8 4 -15 8 -15 10 0 2 7 4 15 4 8 0 15 -4 15 -10z m249
-31 c-22 -13 -31 -11 -17 5 7 8 17 12 22 9 4 -3 2 -9 -5 -14z"/>
<path d="M10000 8654 c36 -8 138 -9 134 -2 -3 4 -38 7 -77 7 -40 -1 -65 -3
-57 -5z"/>
<path d="M9863 8820 c0 -25 2 -35 4 -22 2 12 2 32 0 45 -2 12 -4 2 -4 -23z"/>
<path d="M10542 8780 c0 -14 2 -19 5 -12 2 6 2 18 0 25 -3 6 -5 1 -5 -13z"/>
<path d="M8680 8345 c0 -8 5 -15 10 -15 6 0 10 7 10 15 0 8 -4 15 -10 15 -5 0
-10 -7 -10 -15z"/>
<path d="M5947 8013 c-15 -15 -6 -43 13 -43 11 0 20 6 20 14 0 17 -24 38 -33
29z"/>
<path d="M6005 7991 c-8 -15 3 -31 21 -31 9 0 14 7 12 17 -4 20 -24 28 -33 14z"/>
<path d="M8840 7600 c0 -5 5 -10 10 -10 6 0 10 5 10 10 0 6 -4 10 -10 10 -5 0
-10 -4 -10 -10z"/>
<path d="M8860 6810 c-11 -11 -20 -24 -20 -29 0 -5 -3 -16 -6 -25 -5 -13 2
-16 37 -16 24 0 62 -5 84 -10 46 -11 49 -9 41 24 -16 65 -95 97 -136 56z"/>
<path d="M8841 6681 c13 -37 62 -81 90 -81 26 0 69 43 69 69 0 20 -2 20 -122
36 l-47 6 10 -30z"/>
<path d="M8955 4520 l-70 -17 37 -7 c53 -11 138 10 138 34 0 13 -21 11 -105
-10z"/>
<path d="M11175 9740 c-16 -7 -17 -9 -3 -9 9 -1 20 4 23 9 7 11 7 11 -20 0z"/>
</g>
</svg>
